<?xml version="1.0" standalone="no"?>
<!DOCTYPE svg PUBLIC "-//W3C//DTD SVG 1.1//EN" "http://www.w3.org/Graphics/SVG/1.1/DTD/svg11.dtd" >
<svg xmlns="http://www.w3.org/2000/svg">
<metadata></metadata>
<defs>
<font id="UtopiaStdBlackHeadlineRegular" horiz-adv-x="1200" >
<font-face units-per-em="2048" ascent="1491" descent="-557" />
<missing-glyph horiz-adv-x="344" />
<glyph unicode="&#xfb01;" horiz-adv-x="1359" d="M35 0v66q80 4 97.5 20t17.5 94v764h-115v94h115v43q0 217 155 316q84 57 220 57t190.5 -47t54.5 -98t-46 -84t-84 -33t-55.5 12.5t-25.5 34.5t-14 40.5t-10.5 28t-9.5 24t-9 20.5t-9 13q-9 13 -24 13q-25 0 -24 -37q0 -66 59.5 -166t59.5 -137q479 0 645 23l4 -6v-875 q0 -78 17.5 -94t96.5 -20v-66h-632v66q47 4 62 25.5t15 88.5v676q0 45 -10 66.5t-47 21.5h-147v-764q0 -74 14 -92t68 -22v-66h-629zM809 1265.5q0 75.5 49 123t139 47.5t142.5 -48.5t52.5 -122t-52.5 -121.5t-142.5 -48t-139 47t-49 122.5z" />
<glyph unicode="&#xfb02;" horiz-adv-x="1359" d="M35 0v66q80 4 97.5 20t17.5 94v764h-115v94h115v43q0 199 169 310q100 63 248.5 63t212.5 -59l439 59l8 -2v-1272q0 -78 17.5 -94t96.5 -20v-66h-632v66q47 2 61 24t16 90v1063q-45 -51 -91 -51t-62.5 11t-30.5 48q-39 111 -51 120t-21 9q-25 0 -24.5 -51.5t36.5 -152.5 t36 -138h145v-94h-141v-764q0 -74 14 -92t68 -22v-66h-629z" />
<glyph unicode="&#xfb03;" horiz-adv-x="1982" d="M35 0v66q80 4 97.5 20t17.5 94v764h-115v94h115v25q0 207 155 305q96 66 238.5 66t201 -41t58.5 -90.5t-38 -81t-73 -31.5t-50 11t-28 48q-37 106 -79 107q-25 0 -25 -51.5t34 -140.5t34 -126h208v43q10 223 156 316q86 57 221 57t189.5 -47t54.5 -98t-46 -84t-84 -33 t-55.5 12.5t-29.5 48t-17.5 50t-15.5 35.5q-17 36 -40.5 36t-22.5 -37q0 -66 59 -164t59 -135q478 0 644 23l2 -6v-875q0 -76 17 -93t97 -21v-66h-633v66q47 4 62.5 25.5t15.5 88.5v676q0 45 -10 66.5t-45 21.5h-147v-764q0 -74 11 -93t62 -21v-66h-579v66q49 4 62 23.5 t13 90.5v764h-204v-764q0 -70 12 -91t61 -23v-66h-620zM1442 1265.5q0 75.5 49 123t140 47.5t143.5 -48.5t52.5 -122t-52.5 -121.5t-143.5 -48t-140 47t-49 122.5z" />
<glyph unicode="&#xfb04;" horiz-adv-x="1982" d="M35 0v66q80 4 97.5 20t17.5 94v764h-115v94h115v25q0 207 155 305q96 66 238.5 66t201 -41t58.5 -90.5t-38 -81t-73 -31.5t-50 11t-28 48q-37 106 -79 107q-25 0 -25 -51.5t34 -140.5t34 -126h208v43q0 197 168 310q47 29 123 46t131 17q143 0 207 -59l443 59l4 -2v-1272 q0 -76 17 -93t97 -21v-66h-633v66q47 4 62.5 25.5t15.5 88.5l2 1024v39q-45 -51 -92 -51t-63.5 11t-42 81.5t-41.5 85.5q-8 4 -17 4q-27 0 -26.5 -51.5t36 -149.5t35.5 -135h146v-94h-144l3 -764q0 -74 11 -93t62 -21v-66h-579v66q49 4 62 23.5t13 90.5v764h-204v-764 q0 -70 12 -91t61 -23v-66h-620z" />
<glyph horiz-adv-x="0" />
<glyph horiz-adv-x="2048" />
<glyph unicode="&#xd;" horiz-adv-x="681" />
<glyph unicode=" "  horiz-adv-x="344" />
<glyph unicode="&#x09;" horiz-adv-x="344" />
<glyph unicode="&#xa0;" horiz-adv-x="344" />
<glyph unicode="!" horiz-adv-x="589" d="M76 1026q-39 125 12 201t207 76t206 -76t11 -201l-182 -577h-72zM111 158q0 80 49 131t134 51t135 -51t49 -131t-50 -130.5t-134 -50.5t-134 50.5t-49 130.5z" />
<glyph unicode="&#x22;" horiz-adv-x="741" d="M78 1393q25 23 94.5 55.5t106.5 28.5q25 -25 42 -69t17 -84t-8 -92t-27.5 -116.5t-30 -96.5t-39 -105.5t-28.5 -75.5l-62 -17q4 170 -14 331t-51 241zM408 1393q27 25 94 56.5t104 27.5q25 -25 42.5 -69t17.5 -78t-4.5 -70.5t-15.5 -79.5t-19.5 -74t-25.5 -79t-23 -67 q-27 -80 -48 -122l-59 -17q6 401 -63 572z" />
<glyph unicode="#" horiz-adv-x="1005" d="M53 401l43 172h203l37 152h-205l45 172h203l80 330h78l-80 -330h207l79 330h76l-80 -330h207l-39 -172h-211l-37 -152h209l-39 -172h-213l-86 -354h-77l88 354h-207l-86 -354h-80l88 354h-203zM377 573h207l37 152h-207z" />
<glyph unicode="$" horiz-adv-x="1202" d="M86 270q0 61 50 103.5t114 42.5q72 0 94 -94q31 -135 79 -183.5t134 -64.5v395l-129 45q-168 59 -248 141t-80 230.5t72 238.5q129 162 387 166v158h74v-158q219 0 324.5 -72.5t105.5 -156.5q0 -57 -49 -95t-92 -38t-64.5 14t-28.5 55q-34 217 -196 217v-358l139 -43 q195 -61 269.5 -139t74.5 -242q0 -92 -33.5 -168t-87 -123t-119.5 -79q-120 -56 -243 -56v-176h-74v176q-240 0 -356.5 84t-116.5 180zM399 1059q0 -74 37 -112.5t121 -65.5v333q-66 -4 -112 -42.5t-46 -112.5zM633 74q76 8 109 32q63 43 63 135.5t-41 132t-131 70.5v-370z " />
<glyph unicode="%" horiz-adv-x="1507" d="M47 951q0 173 93 265.5t250 92.5t257 -66q41 -25 92 -24h242q63 0 87 14t50 61l45 74l66 -43l-899 -1384l-60 43l758 1161h-323q31 -53 30.5 -210t-97.5 -249t-253 -92t-247 92t-91 265zM303 951q0 -294 89 -294t89 294t-89 294t-89 -294zM772 335q0 173 92 265t251 92 t252 -92t93 -265t-93 -265.5t-252 -92.5t-251 92.5t-92 265.5zM1026 336q0 -295 89 -295t89 294t-88 294q-49 0 -69.5 -66.5t-20.5 -226.5z" />
<glyph unicode="&#x26;" horiz-adv-x="1529" d="M37 379q0 111 54 163t243 142q-37 39 -65.5 117t-28.5 151q0 166 116.5 261.5t311 95.5t295 -75t100.5 -214q0 -98 -74 -151.5t-237 -112.5q74 -90 378 -385q25 33 43.5 106.5t18.5 149t-39 180.5q31 41 97.5 67.5t105.5 26.5q88 -70 88 -196q0 -74 -81 -191t-177 -197 q74 -76 182.5 -159.5t147.5 -91.5l-11 -66h-194q-266 0 -369 61l-27 17q-133 -100 -407 -101q-217 0 -344 106.5t-127 295.5zM385 535q0 -180 116.5 -297t276.5 -117q37 0 56 8q-211 158 -439 473q-10 -28 -10 -67zM578 1077q0 -135 129 -272q106 73 106 225q0 88 -37 145.5 t-88 57.5q-111 0 -110 -156z" />
<glyph unicode="'" horiz-adv-x="434" d="M78 1393q25 23 103.5 55.5t117.5 28.5q57 -57 57 -146q0 -160 -123 -493l-59 -17q0 154 -29.5 319t-66.5 253z" />
<glyph unicode="(" horiz-adv-x="692" d="M119 600q0 351 105 624q55 146 162.5 231t254.5 83l4 -45q-160 -55 -246 -280.5t-86 -612.5q0 -776 332 -893l-4 -45q-119 -2 -212 55.5t-150.5 148.5t-94.5 218q-65 223 -65 516z" />
<glyph unicode=")" horiz-adv-x="692" d="M47 -293q330 115 330 894t-330 892l2 45q147 2 255 -81t163 -227q104 -274 104 -630q0 -349 -104 -624q-55 -146 -163 -231t-255 -83z" />
<glyph unicode="*" horiz-adv-x="706" d="M50 1006.5q5 35.5 34 37.5l199 17q18 2 20 13t-16 20l-172 67q-64 31 -7 109q25 33 56 40t51 -22l102 -153q10 -16 19.5 -11.5t7.5 27.5l-29 178q-4 29 20 43t71 6t66.5 -28.5t4.5 -46.5l-86 -158q-12 -20 -4 -28.5t25 3.5l157 125q18 14 42 -3t38 -55t6 -66.5t-39 -30.5 l-190 -17q-27 -2 -29 -15.5t21 -21.5l182 -73q27 -16 19.5 -47t-32 -60t-52 -38t-46.5 13l-98 168q-20 31 -24 0v-20l16 -184q2 -31 -23.5 -43.5t-64.5 -6t-59.5 30t-6.5 49.5l86 164q12 20 5 30.5t-25 -5.5l-143 -117q-52 -29 -93 45q-14 29 -9 64.5z" />
<glyph unicode="+" horiz-adv-x="870" d="M78 473v100h295v308h125v-308h297v-100h-297v-319h-125v319h-295z" />
<glyph unicode="," horiz-adv-x="559" d="M59 -262q115 180 115 412q0 33 -14.5 91t-32.5 93q27 23 120 56.5t136 27.5q29 -29 49.5 -78t20.5 -84q0 -127 -97.5 -276.5t-242.5 -284.5z" />
<glyph unicode="-" horiz-adv-x="659" d="M78 485v146h506v-146h-506z" />
<glyph unicode="." horiz-adv-x="559" d="M104 159q0 81 45.5 131t129 50t129 -50t45.5 -131t-45.5 -131.5t-129 -50.5t-129 50.5t-45.5 131.5z" />
<glyph unicode="/" horiz-adv-x="649" d="M61 -90l447 1579l80 -27l-447 -1577z" />
<glyph unicode="0" d="M43 648q0 673 558 673t558 -673t-558 -673t-558 673zM492 666q0 -353 19 -481t88 -128t88.5 132.5t19.5 467t-23 460.5t-84 126q-35 0 -55.5 -20.5t-32.5 -88.5q-20 -115 -20 -468z" />
<glyph unicode="1" d="M205 0v68l94 10q49 6 60.5 22.5t11.5 73.5v899q0 47 -12.5 65.5t-47.5 22.5l-92 13v67l596 39l8 -4v-1102q0 -55 15.5 -73.5t56.5 -22.5l94 -10v-68h-784z" />
<glyph unicode="2" d="M53 18q23 236 330 492q152 125 213 240.5t61 237.5t-34.5 177.5t-95 55.5t-98.5 -69t-67 -290q-8 -61 -38.5 -82.5t-95.5 -21.5t-118 44t-53 136q0 150 138.5 256t397.5 106t386 -104t127 -293q0 -154 -68.5 -224.5t-259.5 -143.5q-66 -27 -171 -66t-151 -57 q-130 -53 -182 -105h639q57 0 82 24.5t84 141.5l72 -20l-90 -453h-998z" />
<glyph unicode="3" d="M63 217q0 70 54.5 114t120 44t91 -30t38.5 -95q45 -242 155 -242q121 0 121 328q0 181 -87 244q-29 22 -101 22l-21 -2q-29 0 -82 -12l-14 90q63 8 93 13t70 22.5t57 44.5q44 72 44 200q0 264 -90 265q-53 0 -83 -61.5t-56 -217.5q-18 -100 -115 -100q-72 0 -122 40 t-50 120q0 121 126 208.5t363 87.5q485 0 486 -317q0 -135 -105.5 -200.5t-304.5 -90.5v-26q349 -14 435 -160q38 -64 38 -156q0 -422 -583 -422q-477 0 -478 289z" />
<glyph unicode="4" d="M47 381l569 895l349 2l6 -2v-854h190v-111h-190v-331l-428 -41l-8 6v366h-457zM182 422h353v584q-57 -100 -193.5 -321.5t-159.5 -262.5z" />
<glyph unicode="5" d="M66 178q0 68 52 112t107.5 44t79 -27.5t39.5 -87.5q55 -211 166 -211q129 0 129 346q0 156 -54.5 212.5t-142.5 56.5q-133 0 -233 -158l-76 45l94 756l9 10h548q252 0 326 39l12 -10q-2 -94 -75.5 -236.5t-143.5 -142.5h-569q-35 0 -49.5 -14.5t-20.5 -49.5l-47 -280 q100 100 197.5 149t253.5 49q449 0 448 -399q0 -197 -145.5 -325t-452.5 -128q-205 0 -328.5 63.5t-123.5 186.5z" />
<glyph unicode="6" d="M47 588q0 365 200.5 581.5t579.5 216.5q168 0 269 -45l-19 -65q-51 10 -143 10q-201 0 -311.5 -145.5t-120.5 -409.5q4 2 24.5 19.5t27.5 21.5t27.5 19.5t32 21.5t32 17.5t35.5 16.5t35 12q33 11 85 11q166 0 264 -94t98 -297q0 -244 -149.5 -373t-395.5 -129 q-309 0 -440 151t-131 460zM498 523.5q0 -176.5 28.5 -320.5t93 -144t84 82t19.5 233.5t-32 238.5t-88 87q-105 0 -105 -176.5z" />
<glyph unicode="7" d="M49 797l84 479h1008l4 -4q-31 -152 -91.5 -279t-164.5 -278.5t-130 -270t-26 -358.5q0 -158 -186 -158q-175 0 -219 81q-19 36 -19 102.5t21.5 135t74 139.5t84 106.5t92 98t197.5 185.5t170 174h-643q-59 0 -87 -25.5t-91 -148.5z" />
<glyph unicode="8" d="M31 360q0 141 77.5 214t260.5 100v20q-293 23 -293 281q0 178 136 253t389 75t388 -74t135 -241t-78.5 -225t-220.5 -69v-20q188 -18 267 -95t79 -219q0 -213 -150.5 -299t-414.5 -86t-410 73q-165 82 -165 312zM475 356q0 -303 129 -303q74 0 97.5 73t23.5 230 q0 291 -127 291q-70 0 -96.5 -62.5t-26.5 -228.5zM498 975q0 -256 103 -256t104 254q0 141 -24 196.5t-82 55.5t-79.5 -53.5t-21.5 -196.5z" />
<glyph unicode="9" d="M43 799q0 290 228 425q124 74 307 74q311 0 441 -156.5t130 -465.5q0 -369 -195.5 -568.5t-556.5 -199.5q-168 0 -262 43l15 72q59 -14 143 -14.5t152.5 28.5t113.5 77t76 110q57 115 57 259h-10q-109 -121 -272.5 -121t-265 108t-101.5 329zM477 869.5 q0 -148.5 27.5 -250t91.5 -101.5q102 0 102 289q0 203 -32.5 306.5t-84.5 103.5t-78 -99.5t-26 -248z" />
<glyph unicode=":" horiz-adv-x="559" d="M104 159q0 81 45.5 131t129 50t129 -50t45.5 -131t-45.5 -131.5t-129 -50.5t-129 50.5t-45.5 131.5zM104 822q0 81 45.5 132.5t129 51.5t129 -51.5t45.5 -132.5t-45.5 -131t-129 -50t-129 50t-45.5 131z" />
<glyph unicode=";" horiz-adv-x="559" d="M59 -262q115 180 115 412q0 33 -14.5 91t-32.5 93q27 23 120 56.5t136 27.5q29 -29 49.5 -78t20.5 -84q0 -127 -97.5 -276.5t-242.5 -284.5zM104 822q0 81 45.5 132.5t129 51.5t129 -51.5t45.5 -132.5t-45.5 -131t-129 -50t-129 50t-45.5 131z" />
<glyph unicode="&#x3c;" horiz-adv-x="849" d="M78 471v104l694 297v-122l-547 -228l547 -225v-123z" />
<glyph unicode="=" horiz-adv-x="870" d="M78 315v103h717v-103h-717zM78 629v102h717v-102h-717z" />
<glyph unicode="&#x3e;" horiz-adv-x="849" d="M78 154v122l545 246l-545 248v123l694 -318v-104z" />
<glyph unicode="?" horiz-adv-x="1007" d="M49 1047q0 100 115 178t340 78q446 0 446 -283q0 -62 -20.5 -88.5t-28.5 -37.5t-44 -33.5t-49 -31t-76 -43.5q-120 -65 -120 -122q0 -31 20.5 -50.5t55.5 -19.5t57 4l17 -57q-113 -92 -281 -92q-104 0 -178 54t-74 148q0 61 31 101.5t141.5 121t110.5 217.5t-51 138 q-28 0 -37.5 -18.5t-16 -32t-12.5 -38t-9 -43t-10 -52t-11 -56.5q-18 -84 -125 -84q-76 0 -133.5 37t-57.5 105zM301 168q0 84 53.5 137t142.5 53t141 -53t51 -137t-52 -137.5t-141 -53.5t-142.5 53.5t-52.5 137.5z" />
<glyph unicode="@" horiz-adv-x="1626" d="M57 348q0 424 227.5 645t614.5 221q315 0 492.5 -163.5t177.5 -446.5t-133 -435.5t-359 -152.5q-115 0 -147 34q-56 60 -19 196l-6 2q-66 -119 -146.5 -175.5t-197.5 -56.5q-68 0 -109.5 57.5t-41.5 160t26.5 199.5t80.5 196.5t154.5 164t212 64.5t150.5 -39l6 17h248 q-14 -53 -131 -590q-18 -82 -7 -112t58 -30q92 0 168 122t76 378t-151.5 397.5t-405.5 141.5q-655 0 -655 -795q0 -260 130 -438q68 -92 188 -146.5t281.5 -54.5t275.5 55.5t204 186.5l39 -37q-104 -168 -253 -238.5t-318.5 -70.5t-290.5 39t-222.5 122.5t-159 232 t-57.5 349.5zM692 250q0 -86 49 -86q59 0 128 123t114 319q14 59 37 166q-25 16 -59 16q-111 0 -190 -181t-79 -357z" />
<glyph unicode="A" horiz-adv-x="1249" d="M-70 0v66q74 6 97.5 20t62.5 103.5t173 511t188 630.5h340q51 -199 186 -620.5t176 -513.5t61.5 -107.5t98.5 -23.5v-66h-750v66l90 14q33 4 38 22q1 3 1 8q0 54 -86 343h-334q-51 -193 -67 -265q-10 -46 -10 -70q0 -14 3 -20q9 -20 42 -22l108 -10v-66h-418zM297 541 h283q-61 221 -140 481h-10q-100 -356 -133 -481z" />
<glyph unicode="B" horiz-adv-x="1386" d="M39 0v66q86 2 105.5 21t19.5 95v967q0 76 -20.5 96.5t-104.5 22.5v63h797q289 0 374 -71q88 -74 88 -210.5t-93 -217t-285 -95.5v-18q250 -20 340 -101q86 -80 86 -229q0 -389 -615 -389h-692zM618 178q0 -55 16.5 -77.5t82.5 -22.5t109.5 77.5t43.5 219.5 q0 295 -198 295h-54v-492zM618 748h52q98 0 134 53t36 187t-45 198.5t-105 64.5q-62 0 -70 -21q-2 -7 -2 -30v-452z" />
<glyph unicode="C" horiz-adv-x="1306" d="M47 644q0 353 170 525q94 98 232.5 146.5t369.5 48.5q96 0 227.5 -22.5t194.5 -61.5v-367h-72q-127 375 -331 375q-96 0 -163 -68.5t-95 -177.5q-50 -188 -50 -368q0 -458 180 -588q60 -43 125.5 -43t109.5 20.5t74 46t64.5 88t53 105.5t59.5 137h72l-33 -381 q-170 -92 -442 -92q-389 0 -567.5 162t-178.5 515z" />
<glyph unicode="D" horiz-adv-x="1521" d="M39 0v66q86 2 105.5 21t19.5 95v967q0 76 -20.5 96.5t-104.5 22.5v63h741q190 0 312 -31.5t208 -117.5q162 -160 162 -498q0 -211 -78.5 -357.5t-198.5 -213.5t-230.5 -90t-282.5 -23h-633zM625 162q0 -47 18.5 -65.5t69.5 -18.5q266 0 266 589q0 588 -273 588h-1 q-47 0 -63.5 -10t-16.5 -43v-1040z" />
<glyph unicode="E" horiz-adv-x="1228" d="M39 0v66q86 2 105.5 21t19.5 95v967q0 76 -20.5 96.5t-104.5 22.5v63h1094v-385h-80q-37 84 -54.5 124t-42 82t-37 54.5t-42 24.5t-52 13t-69.5 1h-70q-43 0 -52 -11t-9 -58v-453h69q92 0 120 28.5t79 174.5h78v-496h-78q-53 147 -80 176t-119 29h-69v-434 q0 -82 21.5 -97.5t116.5 -15.5t137 18q86 35 233 326h75l-37 -432h-1132z" />
<glyph unicode="F" horiz-adv-x="1171" d="M39 0v66q86 2 105.5 21t19.5 95v967q0 76 -20.5 96.5t-104.5 22.5v63h1085v-403h-77q-84 193 -121 239q-61 80 -176 80h-60q-43 0 -54 -10t-11 -51v-502h96q80 0 105.5 28.5t80.5 176.5h80v-508h-80q-51 141 -81.5 178t-104.5 37h-96v-414q0 -76 22.5 -95t128.5 -21v-66 h-737z" />
<glyph unicode="G" horiz-adv-x="1423" d="M59 655q0 493 385 650q144 59 398 59q117 0 237.5 -26.5t190.5 -65.5v-402h-78q-74 209 -156 314.5t-196 105.5q-78 0 -135.5 -48t-87 -114.5t-47.5 -157.5q-25 -133 -25 -241t1 -148t6 -114t14 -124t28.5 -110.5t47.5 -98.5q66 -89 167 -89q66 0 65 84v332 q0 78 -26.5 102.5t-132.5 30.5v63h684v-63q-63 -6 -79.5 -31.5t-16.5 -101.5v-398q-184 -96 -500 -96t-488 107q-256 164 -256 581z" />
<glyph unicode="H" horiz-adv-x="1544" d="M39 0v66q82 4 103.5 19t21.5 77v1005q0 66 -19.5 82.5t-105.5 18.5v63h690v-63q-72 -2 -88 -18.5t-16 -82.5v-424h295v424q0 66 -16.5 82.5t-88.5 18.5v63h690v-63q-90 -2 -107.5 -17.5t-17.5 -83.5v-1005q0 -63 18.5 -77.5t106.5 -18.5v-66h-690v66q74 4 89.5 17 t15.5 79v495h-295v-495q0 -63 16 -77.5t88 -18.5v-66h-690z" />
<glyph unicode="I" horiz-adv-x="786" d="M39 0v66q86 2 105.5 21t19.5 95v967q0 76 -20.5 96.5t-104.5 22.5v63h711v-63q-86 -2 -105.5 -22.5t-19.5 -96.5v-967q0 -76 19.5 -95t105.5 -21v-66h-711z" />
<glyph unicode="J" horiz-adv-x="786" d="M16 -121q59 12 89 33.5t54 82.5q23 59 23 289v19v846q0 78 -20.5 97.5t-112.5 21.5v63h719v-63q-84 -2 -104.5 -22.5t-20.5 -96.5v-860q0 -293 -168 -398q-82 -51 -216 -71q-76 -11 -141 -11q-50 0 -93 7z" />
<glyph unicode="K" horiz-adv-x="1429" d="M39 0v66q86 2 105.5 21t19.5 95v967q0 76 -20.5 96.5t-104.5 22.5v63h711v-63q-86 -2 -105.5 -22.5t-19.5 -96.5v-467h2q82 76 243.5 271.5t192.5 254.5q18 39 -21 45l-106 15v63h500v-63q-94 -12 -134 -29.5t-109.5 -75t-254.5 -256.5q68 -152 192.5 -372t227.5 -357 q70 -92 139 -129l-8 -61l-291 10q-156 4 -236.5 43t-130.5 125q-84 143 -204 457h-2v-441q0 -76 19.5 -95t105.5 -21v-66h-711z" />
<glyph unicode="L" horiz-adv-x="1177" d="M39 0v66q86 2 105.5 21t19.5 95v967q0 76 -20.5 96.5t-104.5 22.5v63h733v-63q-96 -4 -121.5 -23.5t-25.5 -95.5v-950q0 -72 27.5 -92.5t119.5 -20.5t147.5 62.5t149.5 281.5h88l-37 -430h-1081z" />
<glyph unicode="M" horiz-adv-x="1736" d="M-2 0v66l70 14q41 6 57 24.5t27 106.5t12 498v440q0 76 -20.5 96.5t-104.5 22.5v63h553q160 -406 293 -729h4q172 537 227 729h582v-63q-84 -2 -104.5 -22.5t-20.5 -96.5v-967q0 -76 19.5 -95t105.5 -21v-66h-703v66q86 2 105.5 21t19.5 95v838h-16l-285 -1020h-203 l-346 1020h-16v-311q0 -420 13 -501t36 -103.5t66 -26.5l86 -12v-66h-457z" />
<glyph unicode="N" horiz-adv-x="1351" d="M16 0v66l54 10q37 6 54 26.5t28 103.5t12 464v479q0 76 -20.5 96.5t-104.5 22.5v63h549q88 -137 295 -439t243 -357h7v215q0 289 -13.5 376.5t-32 106t-57.5 22.5l-115 13v63h451v-63l-53 -6q-35 -4 -50.5 -22.5t-23.5 -70.5q-16 -147 -16 -419v-750h-320 q-88 139 -308 481t-335 531h-6v-342q0 -395 11 -469t30.5 -95.5t56.5 -25.5l121 -14v-66h-457z" />
<glyph unicode="O" horiz-adv-x="1509" d="M57 667q0 333 172.5 515t526.5 182t525 -181.5t171 -516t-172 -517t-524 -182.5t-525.5 183.5t-173.5 516.5zM543 617q0 -572 211 -572q115 0 164 144.5t49 476.5q0 456 -99 570q-45 52 -111 52t-109 -46q-105 -111 -105 -625z" />
<glyph unicode="P" horiz-adv-x="1323" d="M39 0v66q86 2 105.5 21t19.5 95v967q0 76 -20.5 96.5t-104.5 22.5v63h709q150 0 227.5 -10t138.5 -41q180 -88 180 -340q0 -219 -143 -327.5t-403 -108.5q-73 0 -130 12v-334q0 -76 23 -95t125 -21v-66h-727zM618 666q0 -84 70 -84q141 0 141 352q0 156 -40.5 238.5 t-108.5 82.5q-41 0 -51.5 -9t-10.5 -40v-540z" />
<glyph unicode="Q" horiz-adv-x="1509" d="M57 670q0 334 172.5 513t526.5 179t525 -180.5t171 -515.5q0 -541 -426 -656q31 -74 98 -141q115 -115 215 -115h29l12 -65q-96 -53 -278 -53q-1 -1 -2 -1q-181 0 -316 95q-137 96 -213 262q-260 35 -387 212t-127 466zM543 666q0 -618 215 -619q105 0 146 101 q44 105 53 212q10 133 10 306q0 618 -217 618q-100 0 -142 -108q-48 -121 -55 -223q-10 -166 -10 -287z" />
<glyph unicode="R" horiz-adv-x="1423" d="M39 0v66q86 2 105.5 21t19.5 95v967q0 76 -20.5 96.5t-104.5 22.5v63h799q273 0 368 -79q88 -74 88 -222.5t-104.5 -239t-308.5 -98.5v-12q186 -37 269 -124t108 -214t44 -179t41.5 -69.5t75.5 -27.5v-66h-258q-156 0 -235.5 45t-114.5 158q-24 78 -35.5 190.5 t-13.5 122.5q-14 115 -109 115h-35v-449q0 -76 19.5 -95t105.5 -21v-66h-704zM618 707h39q184 0 185 274q0 131 -40 202.5t-112 71.5q-47 0 -59.5 -14t-12.5 -61v-473z" />
<glyph unicode="S" horiz-adv-x="1079" d="M37 477h76q100 -219 189 -324.5t210 -105.5q78 0 122 42t44 105.5t-11.5 98.5t-64.5 82t-149 90q-246 104 -329 206.5t-83 268.5q0 201 135 312.5t370.5 111.5t416.5 -76v-370h-78q-74 195 -148.5 282.5t-173.5 87.5q-170 0 -170 -166q0 -143 254 -250q123 -53 192.5 -93 t123 -92t73 -115.5t19.5 -157.5q0 -197 -134.5 -322t-422.5 -125q-106 0 -228.5 29t-203.5 84z" />
<glyph unicode="T" horiz-adv-x="1261" d="M23 924v407h1214v-407h-88q-39 123 -58.5 179t-47 92t-51 42t-72.5 6h-62v-1061q0 -74 34 -93t144 -23v-66h-809v66q109 4 141.5 23t32.5 93v1061h-61q-49 0 -71.5 -5t-50.5 -41t-47 -93t-58 -180h-90z" />
<glyph unicode="U" horiz-adv-x="1523" d="M18 1268v63h711v-63q-84 -2 -104.5 -22.5t-20.5 -96.5v-758q0 -182 38 -264t126 -82t125 81t37 265v758q0 76 -20.5 96.5t-104.5 22.5v63h698v-63q-84 -2 -104.5 -22.5t-20.5 -96.5v-670q0 -133 -26.5 -223t-93.5 -158q-129 -131 -494 -131q-463 0 -570 225 q-49 105 -49 277v680q0 76 -20.5 96.5t-106.5 22.5z" />
<glyph unicode="V" horiz-adv-x="1214" d="M-53 1268v63h717v-63l-103 -11q-29 -3 -29 -34q0 -13 5 -31q27 -96 262 -887h12q186 653 231 881q3 13 3 24q0 39 -35 43l-111 15v63h414v-63q-68 -6 -91.5 -21.5t-45.5 -75.5q-219 -606 -381 -1171h-340q-86 273 -377 1159q-25 68 -46.5 85.5t-84.5 23.5z" />
<glyph unicode="W" horiz-adv-x="1767" d="M-49 1270v61h704v-63l-100 -11q-30 -5 -30 -45q0 -12 3 -28q39 -236 156 -813h6l154 932h330l253 -965h11q41 195 91 476.5t60 381.5q1 6 1 11q0 43 -44 48l-104 13v63h418v-63q-59 -4 -87 -20.5t-42 -63.5q-86 -297 -295 -1184h-355l-219 827h-6l-147 -827h-355 q-33 133 -90 370q-141 590 -198 806q-14 55 -34 72.5t-81 21.5z" />
<glyph unicode="X" horiz-adv-x="1232" d="M-59 0v66q80 8 107.5 20t98 94.5t287.5 388.5l-332 623q-23 45 -50 59.5t-91 16.5v63h752v-63l-88 -11q-32 -4 -32 -29q0 -13 9 -32l148 -301h4q188 306 188 343q0 12 -29 17l-94 13v63h432v-63q-74 -8 -107.5 -23.5t-74.5 -62.5q-121 -135 -283 -353l379 -684 q25 -49 56.5 -62t97.5 -17v-66h-778v66l96 12q20 2 25.5 22.5t-5.5 36.5l-178 357h-8q-25 -45 -98.5 -168t-100.5 -185q-5 -16 -5 -28q0 -32 38 -37l96 -10v-66h-460z" />
<glyph unicode="Y" horiz-adv-x="1196" d="M-51 1268v63h743v-63l-92 -13q-25 -4 -25 -27q0 -15 11 -38q94 -233 229 -528h4q98 262 178 516q8 24 8 41q0 33 -30 36l-98 13v63h397v-63q-45 -4 -66 -8q-48 -11 -78 -76q-156 -324 -270 -617q-16 -39 -16 -94v-295q0 -74 23.5 -90t140.5 -22v-66h-768v66q115 6 138 22 t23 90v281q0 53 -18 96q-289 655 -357 695q-22 14 -77 18z" />
<glyph unicode="Z" horiz-adv-x="1247" d="M6 35q192 337 397 720.5t265 491.5h-150q-135 0 -189.5 -58.5t-166.5 -305.5h-76v448h1114l12 -28q-121 -221 -359.5 -673t-289.5 -546h185q125 0 207.5 73.5t191.5 295.5h78l-39 -453h-1172z" />
<glyph unicode="[" horiz-adv-x="518" d="M160 -322v1846h309v-62l-104 -8q-41 -4 -41 -74v-1556q0 -37 8 -53.5t33 -18.5l104 -14v-60h-309z" />
<glyph unicode="\" horiz-adv-x="649" d="M61 1462l80 27l447 -1579l-80 -25z" />
<glyph unicode="]" horiz-adv-x="518" d="M47 -262l107 10q25 2 33 18.5t8 55.5v1554q0 39 -8.5 55.5t-32.5 18.5l-105 12v62h309v-1846h-311v60z" />
<glyph unicode="^" horiz-adv-x="831" d="M68 618l276 652h150l270 -652h-135l-211 529l-215 -529h-135z" />
<glyph unicode="_" horiz-adv-x="962" d="M0 -145h963v-97h-963v97z" />
<glyph unicode="`" horiz-adv-x="731" d="M145 1369q0 34 39 66.5t80 32.5q55 0 92 -94l99 -250l-37 -26l-193 159q-45 35 -62.5 56.5t-17.5 55.5z" />
<glyph unicode="a" d="M55 295q0 102 48.5 166.5t170.5 103.5q313 82 373 137v125q0 86 -22.5 121t-71.5 35q-111 0 -158 -221q-14 -59 -40.5 -82t-95.5 -23t-126 34t-57 106q0 104 135 186t381 82q475 0 475 -320v-473q0 -111 37 -140q30 -23 98 -23l4 -60q-129 -76 -344 -76q-160 0 -207 125 q-10 -8 -39.5 -32.5t-46 -36t-45.5 -26.5q-60 -30 -131 -30q-150 0 -244 91.5t-94 230.5zM471 346q0 -92 29.5 -155.5t73 -63.5t58.5 26.5t15 94.5v370q-74 -41 -103 -64q-73 -58 -73 -208z" />
<glyph unicode="b" horiz-adv-x="1296" d="M25 1343v66l528 45l4 -6v-494q106 61 174 86t133 25t120.5 -19.5t116 -67.5t98.5 -155.5t38 -254t-31.5 -253t-84 -171t-131.5 -103.5q-138 -68 -324.5 -68t-335.5 70l-187 -70l-16 13v1263q0 78 -45 86zM557 213q0 -164 102 -164q127 0 127 438q0 285 -72 381 q-30 41 -73 41q-84 0 -84 -82v-614z" />
<glyph unicode="c" horiz-adv-x="1069" d="M57 520.5q0 282.5 181 429.5q143 115 361.5 115t331.5 -65.5t113 -176.5q0 -76 -65.5 -116.5t-126.5 -40.5q-104 0 -117 92q-16 129 -41.5 179t-73.5 50t-80 -98t-32 -293q0 -449 227 -449q88 0 146.5 39.5t115.5 141.5l54 -29q-57 -184 -178 -255t-300 -71 q-262 0 -389 132.5t-127 415z" />
<glyph unicode="d" horiz-adv-x="1298" d="M57 526.5q0 276.5 146.5 407.5t394.5 131q84 0 133 -16v200q0 78 -43 86l-59 8v66l528 45l6 -4v-1270q0 -78 17.5 -94t97.5 -20v-66h-508l-18 98q-168 -125 -299 -125q-190 0 -293 138.5t-103 415zM508 516q0 -186 43 -287.5t106 -101.5q37 0 55.5 30.5t18.5 73.5l-2 611 q0 123 -65 140q-11 3 -37.5 3t-53 -41t-46 -141.5t-19.5 -286.5z" />
<glyph unicode="e" horiz-adv-x="1128" d="M57 505.5q0 276.5 141.5 418t407.5 141.5q349 0 456 -220q40 -83 40 -218q0 -55 -18.5 -80t-69.5 -25h-506q2 -172 60.5 -272t174.5 -100t176 32.5t107 132.5l53 -28q-55 -174 -178 -244t-305 -70q-276 0 -407.5 128t-131.5 404.5zM508 602l125 8q43 4 56 19.5t13 72.5 q0 285 -92 285q-102 0 -102 -385z" />
<glyph unicode="f" horiz-adv-x="729" d="M35 0v66q80 4 97.5 20t17.5 94v764h-115v94h115v23q0 221 157 323q109 70 248 70t202.5 -41t63.5 -94t-47 -90t-84 -37t-53 11t-31 48q-37 111 -57 123q-6 4 -14 4q-25 0 -25 -51.5t34 -151.5t34 -137h163v-94h-159v-764q0 -78 21.5 -94t117.5 -20v-66h-686z" />
<glyph unicode="g" horiz-adv-x="1132" d="M35 -119q0 104 209 131v13q-78 12 -129.5 64t-51.5 131t70 131t168 79v4q-246 47 -246 293q0 338 512 338q207 0 328 -74l254 62l8 -9l-41 -153h-133q18 -20 37.5 -74.5t19.5 -97.5q0 -158 -132 -237t-359 -79l-135 9q-49 -12 -49 -43q0 -61 124 -62h269 q184 0 283.5 -67.5t99.5 -233.5q0 -193 -167 -298t-422 -105q-517 0 -517 278zM317 -121q0 -86 66 -142t188 -56t179 46t57 120.5t-61.5 102t-212 27.5t-183.5 -27.5t-33 -70.5zM465 734q0 -253 96 -253q57 0 77.5 65.5t20.5 184.5q0 256 -100 256q-94 0 -94 -253z" />
<glyph unicode="h" horiz-adv-x="1339" d="M25 0v66q80 4 98 21t18 93v1069q0 78 -45 86l-57 8v66l528 45l4 -8v-514q131 92 189.5 112t128.5 21q158 0 237.5 -86t79.5 -240v-559q0 -76 18.5 -93t98.5 -21v-66h-629v66q49 6 65.5 20t16.5 57v588q0 174 -102 174q-51 0 -77 -41t-26 -143v-578q0 -43 16.5 -57 t65.5 -20v-66h-628z" />
<glyph unicode="i" horiz-adv-x="716" d="M37 0v66q80 4 97.5 20t17.5 94v668q0 76 -43 84l-60 10v66l537 53l8 -6v-875q0 -78 17.5 -94t97.5 -20v-66h-672zM166 1265.5q0 73.5 55 122t146.5 48.5t146.5 -48.5t55 -122t-55 -121.5t-146 -48t-146.5 48t-55.5 121.5z" />
<glyph unicode="j" horiz-adv-x="724" d="M-23 -332q66 18 97.5 43t59.5 107.5t28 335.5v694q0 76 -45 84l-58 10v66l541 53l2 -4v-977q0 -279 -184 -395q-80 -53 -212 -69q-97 -13 -169 -13q-26 0 -49 2zM178 1265.5q0 73.5 55.5 122t146.5 48.5t146.5 -48.5t55.5 -122t-55.5 -121.5t-146.5 -48t-146.5 48 t-55.5 121.5z" />
<glyph unicode="k" horiz-adv-x="1284" d="M23 0v66q80 4 98 21t18 93v1069q0 78 -45 86l-57 8v66l524 45l8 -8v-1266q0 -76 14.5 -89t88.5 -25v-66h-649zM569 516v10q41 63 314 451q29 39 50 50t58 11h250v-45l-182 -57q-70 -23 -107 -50.5t-104 -111.5q66 -147 174 -345q181 -332 287 -390l-2 -45l-324 6 q-184 2 -262 131q-47 75 -75 156.5t-49.5 147t-27.5 81.5z" />
<glyph unicode="l" horiz-adv-x="702" d="M23 0v66q80 4 98 21t18 93v1069q0 78 -45 86l-57 8v66l524 45l8 -8v-1266q0 -76 18.5 -93t98.5 -21v-66h-663z" />
<glyph unicode="m" horiz-adv-x="1996" d="M37 0v66q80 4 97.5 20t17.5 94v668q0 76 -43 84l-60 10v66l498 53l26 -141q10 6 55.5 37.5t56.5 37.5t48 26.5t57 26.5q66 17 144.5 17t155.5 -40t110 -114q84 61 120 85t99.5 46.5t132.5 22.5q154 0 233 -86t79 -240v-559q0 -76 17 -93t97 -21v-66h-620v66q49 6 61.5 20 t12.5 57v580q0 172 -101.5 172t-101.5 -195v-557q0 -43 12 -57t62 -20v-66h-590v66q49 6 61 20t12 57v580q0 172 -101 172t-101 -195v-557q0 -43 13 -57t60 -20v-66h-620z" />
<glyph unicode="n" horiz-adv-x="1351" d="M37 0v66l57 2q28 0 39.5 10t11.5 15l7 40v715q0 76 -43 84l-60 10v66l498 53l26 -139q178 127 251 138q34 5 75 5q160 0 240 -86t80 -240v-559q0 -76 17 -93t97 -21v-66h-620v66q49 6 61 20t12 57v570q0 182 -96 182q-106 0 -106 -195v-530q0 -49 14 -73.5t59 -30.5v-66 h-620z" />
<glyph unicode="o" horiz-adv-x="1269" d="M66 519q0 546 577.5 546t577.5 -546t-577.5 -546t-577.5 546zM516 515q0 -224 26.5 -345t100.5 -121q127 0 127 465t-127 465q-74 0 -100.5 -120t-26.5 -344z" />
<glyph unicode="p" horiz-adv-x="1306" d="M23 -307q80 4 98 20.5t18 93.5v1041q0 76 -45 84l-57 10v66l495 53l33 -154q4 4 53.5 45t73 57.5t74.5 36t126.5 19.5t149.5 -40t112 -96.5t62 -132.5q33 -107 33 -232.5t-23.5 -222.5t-81.5 -184q-121 -184 -454 -184q-68 0 -121 19v-185q0 -78 18.5 -93t110.5 -21v-66 h-675v66zM569 201q0 -154 95 -154q135 0 135 424t-133 424q-97 0 -97 -143v-551z" />
<glyph unicode="q" horiz-adv-x="1286" d="M57 500q0 565 574 565q182 0 313 -59l209 55h10v-1254q0 -78 17.5 -94t97.5 -20v-66h-676v66q94 2 111.5 18.5t17.5 95.5v283q-139 -117 -272 -117q-199 0 -300.5 137.5t-101.5 389.5zM508 550.5q0 -149.5 22.5 -247.5t52 -134t70.5 -36t59.5 33t18.5 131v510 q0 104 -22.5 142t-61.5 38t-67.5 -41t-50 -143.5t-21.5 -252z" />
<glyph unicode="r" horiz-adv-x="991" d="M35 0v66q80 4 97.5 20t17.5 94v668q0 76 -44 84l-59 10v66l498 53l24 -197q66 80 94.5 113t73.5 60.5t106.5 27.5t113 -49t51.5 -129t-69 -158t-134 -78t-98 51q-61 100 -103 101q-23 0 -22 -37v-586q0 -80 18 -95t123 -19v-66h-688z" />
<glyph unicode="s" horiz-adv-x="944" d="M47 399h70q55 -137 151.5 -243.5t194.5 -106.5q121 0 121 119q0 57 -51.5 100t-145.5 83t-139 65.5t-94 66.5q-93 79 -93 241.5t118 251.5t323 89t348 -72v-309h-68q-49 133 -122.5 218t-137.5 85q-133 0 -133 -110q0 -53 53.5 -94.5t203 -101.5t215 -131t65.5 -204 q0 -178 -122 -275.5t-360.5 -97.5t-363.5 88z" />
<glyph unicode="t" horiz-adv-x="735" d="M31 944v94h114l256 244h164v-244h172v-94h-172v-618q0 -111 24.5 -158t86.5 -46q29 0 72 13l14 -57q-193 -104 -337 -104q-1 0 -2 -1q-142 -1 -215 63t-73 210v698h-104z" />
<glyph unicode="u" horiz-adv-x="1339" d="M39 961v65l520 25l12 -9v-725q0 -84 28 -130t74 -46t72.5 45t26.5 185v495q0 78 -45 84l-57 11v65l520 25l14 -9v-862q0 -78 17.5 -94t97.5 -20v-66h-500l-31 131q-4 -2 -39.5 -33.5t-68.5 -55.5t-89 -46.5t-110 -22.5q-166 0 -253 75t-87 251v567q0 78 -45 84z" />
<glyph unicode="v" horiz-adv-x="1062" d="M-55 973v65h678v-65l-66 -8q-34 -9 -34 -40q0 -12 5 -28q41 -150 189 -553h8q82 272 143 563q2 11 2 19q0 33 -36 37l-80 10v65h385v-65q-80 -8 -103.5 -21.5t-40.5 -50.5q-47 -111 -159.5 -443.5t-145.5 -457.5h-309q-31 111 -156 461t-154.5 411.5t-51 79t-74.5 21.5z " />
<glyph unicode="w" horiz-adv-x="1597" d="M-53 973v65h669v-65l-79 -10q-31 -3 -31 -30q0 -12 6 -30q16 -96 59 -268t56 -234h12q92 365 135 613h311l191 -619h12q72 250 117 500q2 12 2 22q0 40 -33 44l-96 12v65h387v-65q-74 -8 -96.5 -25.5t-55 -105t-127 -382t-137.5 -460.5h-286l-193 586h-10 q-10 -35 -137 -586h-297q-109 416 -263 879q-18 53 -39.5 71.5t-76.5 22.5z" />
<glyph unicode="x" horiz-adv-x="1019" d="M-49 0v66q66 4 96.5 18t61.5 51q125 150 227 295q-37 59 -124 232.5t-125 228.5t-58.5 66.5t-77.5 15.5v65h663v-65l-53 -6q-20 -2 -22 -12.5t10 -34.5l96 -187h8q39 63 77 137q35 68 35 80q0 10 -26 13l-82 10v65h394v-65h-14q-45 1 -70 -11q-29 -14 -100 -85t-179 -211 q31 -51 132.5 -243t145.5 -257.5t69.5 -79.5t80.5 -20v-66h-702v66l59 8q33 4 33 26q0 11 -8 25l-121 231h-4q-12 -20 -53 -100t-67 -129q-9 -17 -9 -29q0 -22 32 -24l78 -8v-66h-403z" />
<glyph unicode="y" horiz-adv-x="1009" d="M-63 973v65h681v-65l-67 -8q-33 -4 -33 -36q0 -16 8 -38q23 -68 52 -143q72 -179 133 -318h8q96 334 123 469q3 12 3 23q0 37 -36 43l-74 8v65h361v-65q-55 0 -77 -13.5t-46.5 -68.5t-72.5 -181q-138 -361 -207.5 -558t-88 -243t-55.5 -120t-67 -105q-82 -81 -173.5 -81 t-143.5 41t-52 105.5t47 115.5t106 51q31 0 45.5 -9t54 -49t76.5 -40t52 34q7 14 7 30q0 23 -12 50q-416 915 -436.5 958.5t-39.5 60t-76 22.5z" />
<glyph unicode="z" horiz-adv-x="1034" d="M18 27q138 226 312 558.5t192 366.5h-86q-68 0 -101.5 -6t-68.5 -41t-59.5 -89t-67.5 -167h-69v389h950l12 -20q-70 -127 -252 -477.5t-239 -456.5h96q145 0 194.5 48t139.5 274h69l-34 -406h-971z" />
<glyph unicode="{" horiz-adv-x="593" d="M70 571v56q109 0 144.5 44t35.5 123.5t-15.5 219t-15.5 217.5q0 147 78 220t211 73h37v-54q-154 0 -154 -192q0 -78 15.5 -221.5t15.5 -225t-56.5 -147.5t-162.5 -80v-10q106 -12 162.5 -77.5t56.5 -149t-15.5 -225.5t-15.5 -220q0 -193 154 -192v-52h-37 q-289 0 -289 293q0 76 15.5 216.5t15.5 218t-36 121.5t-144 44z" />
<glyph unicode="|" horiz-adv-x="446" d="M145 -481v1925h158v-1925h-158z" />
<glyph unicode="}" horiz-adv-x="593" d="M47 -270q156 0 156 192q0 78 -15.5 220.5t-15.5 224t56.5 148.5t162.5 79v10q-106 14 -162.5 79t-56.5 148t15.5 226t15.5 221q0 193 -156 192v54h37q289 0 289 -293q0 -78 -15.5 -218.5t-15.5 -219t37 -122.5t145 -44v-56q-109 0 -145.5 -44t-36.5 -122.5t15.5 -218 t15.5 -215.5q0 -147 -77 -220t-212 -73h-37v52z" />
<glyph unicode="~" horiz-adv-x="870" d="M63 446q84 190 246 191q43 0 71 -12.5t52 -24.5q115 -59 152 -59t64.5 23.5t66.5 99.5l94 -46q-90 -205 -236 -204q-68 0 -159.5 48t-126.5 48q-82 0 -137 -117z" />
<glyph unicode="&#xa1;" horiz-adv-x="589" d="M76 12l182 578h72l182 -578q39 -125 -12 -201.5t-207 -76.5t-206 76.5t-11 201.5zM108.5 881q2.5 80 50.5 130t133 50t135 -50t50 -130t-50 -131.5t-135 -51.5t-135.5 51.5t-48 131.5z" />
<glyph unicode="&#xa2;" horiz-adv-x="1202" d="M72 646q0 273 162.5 398t447.5 130v149h76v-149q201 -10 299 -75t98 -149q0 -57 -38 -88t-87 -31t-66.5 13.5t-32.5 71t-47 99.5t-58.5 53t-67.5 17v-817q80 0 131 12.5t109.5 65.5t103.5 156l51 -27q-53 -168 -166.5 -246t-228.5 -82v-202h-80v198q-311 6 -458.5 118 t-147.5 385zM485 721.5q0 -224.5 41 -310t152 -124.5v798q-37 -6 -59.5 -17t-58.5 -47q-75 -75 -75 -299.5z" />
<glyph unicode="&#xa3;" horiz-adv-x="1202" d="M41 10l59 195q147 53 148 229q0 41 -29 168h-162v74h142q-33 121 -33 217q0 201 133 314.5t385 113.5q248 0 334 -82q69 -65 69 -136t-48 -112t-97 -41t-70.5 14.5t-48 103.5t-59.5 132t-92 43q-106 0 -107 -145q0 -72 28 -211t32 -211h323v-74h-321q-41 -242 -260 -307 v-8h520q72 0 107.5 29.5t115.5 158.5l74 -24l-125 -451h-1014z" />
<glyph unicode="&#xa4;" horiz-adv-x="1202" d="M154 1012l98 102l117 -149q79 79 242 79t239 -75l111 143l100 -98l-129 -129q72 -96 72 -256t-78 -262l139 -117l-111 -119l-110 152q-84 -82 -245 -82t-234 73l-107 -139l-100 107l123 112q-68 115 -68 273t74 256zM356 624.5q0 -149.5 69 -231.5t185.5 -82t183 77 t66.5 227.5t-70.5 234.5t-182.5 84t-181.5 -80t-69.5 -229.5z" />
<glyph unicode="&#xa5;" horiz-adv-x="1202" d="M-14 1206v70h708v-70l-88 -10q-49 -10 -33 -51q82 -193 191 -430h8q178 434 156 467q-8 12 -45 16l-82 8v70h416v-70l-66 -4q-74 -8 -113 -86q-94 -176 -215 -459h213v-69h-227v-146h227v-69h-227v-205q0 -53 12.5 -70.5t44.5 -21.5l103 -6v-70h-738v70l103 6 q35 4 47 21.5t12 70.5v205h-227v69h227v146h-227v69h209q-31 53 -128 236.5t-136.5 245t-79.5 63.5z" />
<glyph unicode="&#xa6;" horiz-adv-x="446" d="M145 -338v676h158v-676h-158zM145 627v673h158v-673h-158z" />
<glyph unicode="&#xa7;" horiz-adv-x="950" d="M70 588q0 178 131 317q-6 127 71.5 217t243.5 90q109 0 183.5 -44t74.5 -107q0 -29 -30.5 -56.5t-68.5 -27.5t-54 43q-29 74 -63 107.5t-89 33.5t-89 -34.5t-34 -88t39 -96.5t164 -111q190 -100 261 -205.5t71 -238.5q0 -182 -123 -328q0 -135 -94.5 -229t-228.5 -94 t-207.5 51t-73.5 121q0 39 33.5 67.5t62.5 28.5t40 -10t40 -70q62 -129 170 -129q43 0 70.5 30t27.5 91t-48 121.5t-208 144.5t-216 180.5t-56 225.5zM190 725q0 -96 48.5 -161.5t172 -135t165.5 -95.5t96.5 -84.5t72.5 -125.5q18 78 19 121q0 88 -53.5 163.5t-169 149.5 t-170 112t-103.5 92t-53 101q-25 -98 -25 -137z" />
<glyph unicode="&#xa8;" horiz-adv-x="731" d="M49 1262.5q0 54.5 39 94.5t106.5 40t104.5 -40t37 -95.5t-37 -94.5t-104.5 -39t-106.5 40t-39 94.5zM432 1262.5q0 54.5 39 94.5t105.5 40t104.5 -40t38 -95.5t-38 -94.5t-105 -39t-105.5 40t-38.5 94.5z" />
<glyph unicode="&#xa9;" horiz-adv-x="1280" d="M68 663q0 257 158.5 429t413.5 172t413.5 -172t158.5 -426t-156.5 -426t-412.5 -172t-415.5 169t-159.5 426zM129 678.5q0 -243.5 147.5 -404.5t374 -161t362.5 148.5t136 392t-146.5 404.5t-373 161t-363.5 -148.5t-137 -392zM311 666q0 152 96.5 245t266.5 93t250 -50 v-176h-37q-57 186 -178 187q-82 0 -119 -82t-37 -207q0 -301 164 -301q104 0 182 180h37l-33 -176q-90 -45 -215 -45q-377 0 -377 332z" />
<glyph unicode="&#xaa;" horiz-adv-x="808" d="M37 690q0 104 141 152q199 61 254 86v69q0 23 -17.5 39.5t-41.5 16.5q-63 0 -99 -105q-18 -57 -78.5 -57t-102.5 23.5t-42 68.5q0 63 93.5 108.5t224 45.5t193.5 -14.5t88.5 -44t32.5 -54.5t7 -66v-249q0 -86 53 -97q25 -6 58 -2l8 -53q-113 -47 -248 -47 q-37 0 -63.5 14.5t-33.5 23.5t-22 34q-8 -4 -35.5 -21.5t-44.5 -26.5q-47 -24 -106 -24q-109 0 -164 53t-55 127zM309 713q0 -43 20.5 -66.5t45.5 -23.5q57 -1 57 65v158q-123 -27 -123 -133z" />
<glyph unicode="&#xab;" horiz-adv-x="870" d="M94 471q-35 37 0 72l342 354l31 -25l-178 -331q-18 -33 0 -66l178 -332l-31 -26zM422 471q-35 37 0 72l342 354l31 -25l-179 -331q-20 -31 0 -66l179 -332l-31 -26z" />
<glyph unicode="&#xac;" horiz-adv-x="870" d="M76 647v103h717v-453h-125v350h-592z" />
<glyph unicode="&#xad;" horiz-adv-x="659" d="M78 485v146h506v-146h-506z" />
<glyph unicode="&#xae;" horiz-adv-x="442" d="M57 1182q0 78 50.5 130t127 52t122.5 -48t46 -127t-50 -131t-125 -52t-123 49t-48 127zM94 1185.5q0 -65.5 39 -109.5t98 -44t97.5 41t38.5 111t-39 111.5t-99.5 41.5t-97.5 -43t-37 -108.5zM145 1110v16l17 2q8 0 8 15v96q0 12 -8 12h-17v19h101q61 0 61 -41 q0 -35 -43 -39q29 -8 37 -41q4 -14 27 -23v-16h-29q-41 0 -47 18q-4 6 -7 16.5t-5 12.5q0 20 -17 21h-6v-35q0 -14 6 -15l19 -2v-16h-97zM217 1200h10q29 0 29 24.5t-29 24.5q-10 0 -10 -8v-41z" />
<glyph unicode="&#xaf;" horiz-adv-x="731" d="M141 1194v133h484v-133h-484z" />
<glyph unicode="&#xb0;" horiz-adv-x="565" d="M71 1116q-1 86 61.5 148.5t150.5 62.5t150.5 -61.5t62.5 -148.5t-62.5 -148.5t-150.5 -61.5t-149.5 61.5t-62.5 147.5zM162 1117.5q0 -62.5 33.5 -103.5t87 -41t87 41t33.5 102t-34.5 103.5t-86.5 42.5t-86 -41t-34 -103.5z" />
<glyph unicode="&#xb1;" horiz-adv-x="870" d="M78 154v102h717v-102h-717zM78 633v100h295v307h125v-307h297v-100h-297v-320h-125v320h-295z" />
<glyph unicode="&#xb2;" horiz-adv-x="774" d="M47 840q6 145 213 303q154 113 154 243t-52 130q-16 0 -26 -8q-30 -26 -64 -167q-10 -39 -26.5 -54t-64.5 -15t-85 31.5t-37 76.5q0 80 92.5 138.5t221.5 58.5q326 0 325 -225q0 -102 -49 -147.5t-160 -78.5q-205 -53 -229 -70.5t-29 -27.5h353q29 0 45 15.5t49 74.5 l61 -10l-75 -277h-611z" />
<glyph unicode="&#xb3;" horiz-adv-x="774" d="M53 973q0 45 42 76.5t88 31.5t62.5 -17t33.5 -74q32 -107 75 -107q29 0 45.5 45t16.5 116q0 133 -74 134l-115 -21q-43 0 -43 62.5t43 62.5l115 -22q55 0 55 128t-47 128q-33 0 -61 -95q-12 -47 -28.5 -68.5t-68 -21.5t-87 26.5t-35.5 63.5q0 66 86 111t213 45t218 -46 t90 -133.5t-45 -119t-130 -49.5v-6q158 -31 190 -97q17 -34 17 -86q0 -106 -92.5 -163.5t-240 -57.5t-235.5 42t-88 112z" />
<glyph unicode="&#xb4;" horiz-adv-x="731" d="M332 1124l98 250q37 94 92 94q41 0 80 -31.5t39 -66.5t-17.5 -56.5t-62.5 -56.5l-192 -159z" />
<glyph unicode="&#xb5;" horiz-adv-x="1323" d="M127 -293v1333h432v-743q0 -172 115 -172q47 0 65.5 42t18.5 161v712h432v-815q0 -80 22.5 -108.5t85.5 -28.5v-65q-88 -45 -333 -46q-98 0 -140.5 28t-50.5 101q-55 -129 -190 -129q-25 0 -72 15q0 -86 14.5 -217t14.5 -162l-11 -10q-111 -18 -236.5 17.5t-166.5 86.5z " />
<glyph unicode="&#xb6;" horiz-adv-x="1093" d="M68 678q0 121 38.5 216t97.5 146q118 99 228 99h309l-2 96l97 27v-123h200v-56l-202 -18q-17 -614 -3.5 -1023t13.5 -429h-113q0 51 9.5 291.5t9.5 590t-7 564.5l-84 -6q-68 -4 -108.5 -98.5t-40.5 -291t39 -293t145 -130.5v-43q-29 -12 -104 -13q-252 0 -387 108.5 t-135 385.5z" />
<glyph unicode="&#xb7;" horiz-adv-x="559" d="M104 531.5q0 80.5 45.5 131t129 50.5t129 -50.5t45.5 -132.5t-45.5 -132t-129 -50t-129 51.5t-45.5 132z" />
<glyph unicode="&#xb8;" horiz-adv-x="770" d="M215 -365q78 0 107.5 25t29.5 76q0 76 -116 100l-5 12l142 166h61l-65 -86q211 -16 211 -168q0 -124 -107 -156q-84 -26 -140 -26t-118 8v49z" />
<glyph unicode="&#xb9;" horiz-adv-x="772" d="M135 831v52l74 6q25 4 34 16.5t9 42.5v467q0 47 -37 49l-78 9v49l385 55l4 -6v-623q0 -31 10.5 -43t36.5 -16l70 -6v-52h-508z" />
<glyph unicode="&#xba;" horiz-adv-x="843" d="M37 823.5q0 313.5 385 313.5t385 -313.5t-385 -313.5t-385 313.5zM330 821.5q0 -102.5 23.5 -165t68.5 -62.5q92 0 92 229.5t-92 229.5q-45 0 -68.5 -64.5t-23.5 -167z" />
<glyph unicode="&#xbb;" horiz-adv-x="870" d="M78 143l178 330q16 33 0 66l-178 333l28 25l343 -354q35 -35 0 -72l-343 -354zM403 143l179 330q18 33 0 66l-179 333l31 25l342 -354q35 -35 0 -72l-342 -354z" />
<glyph unicode="&#xbc;" horiz-adv-x="1583" d="M123 614v52l72 6q45 2 45 59v467q0 47 -37 49l-80 8v50l385 55l6 -6v-623q0 -57 45 -59l72 -6v-52h-508zM336 -12l831 1392l54 -32l-828 -1397zM729 248q168 250 365 485h204v-463h105v-75h-105v-91q0 -47 37 -49l51 -4v-51h-456v51l69 4q39 2 39 49v91h-280zM838 270 h200v283h-4q-23 -37 -93 -133.5t-103 -149.5z" />
<glyph unicode="&#xbd;" horiz-adv-x="1583" d="M102 614v52l74 6q43 2 43 59v467q0 47 -37 49l-78 8v50l385 55l5 -6v-623q0 -31 10 -43t37 -16l69 -6v-52h-508zM301 -12l832 1392l53 -32l-828 -1397zM809 8q2 143 213 303q154 113 154 243t-52 130q-16 0 -28 -8q-26 -18 -62 -166q-10 -39 -27.5 -54.5t-65.5 -15.5 t-84 32t-36 77q0 80 92.5 138t221.5 58q326 0 325 -225q0 -102 -49 -147t-160 -78q-200 -52 -227 -70t-31 -28h350q29 0 46.5 15t50.5 75l61 -11l-76 -276h-610z" />
<glyph unicode="&#xbe;" horiz-adv-x="1583" d="M86 756q0 45 42 76.5t88 31.5t62.5 -17.5t33.5 -74.5q32 -106 75 -106q29 0 45.5 45t16.5 116q0 133 -76 134l-113 -21q-43 0 -43 62.5t43 62.5l113 -23q57 0 57 128t-47 128q-35 0 -61 -94q-14 -49 -30 -69.5t-67 -20.5t-87 26.5t-36 63.5q0 66 86.5 111t214.5 45 t219 -46t89 -145q0 -76 -45 -107.5t-131 -49.5v-6q159 -31 190 -98q16 -34 16 -85q0 -106 -92 -163.5t-239.5 -57.5t-235.5 42t-88 112zM401 -12l834 1392l53 -32l-827 -1397zM772 248q160 238 367 485h204v-463h103v-75h-103v-91q0 -43 35 -49l52 -4v-51h-457v51l71 4 q39 4 39 49v91h-280zM883 270h200v283h-4q-18 -29 -90.5 -128.5t-105.5 -154.5z" />
<glyph unicode="&#xbf;" horiz-adv-x="1007" d="M49 16q0 55 31 106q16 27 67.5 58t112.5 66q129 74 129 125q0 72 -82 71q-29 0 -51 -4l-16 60q116 92 280 92q104 0 178 -54.5t74 -148.5q0 -61 -30.5 -101t-141.5 -121t-111 -217t56 -136q34 0 50 46q14 41 25 101.5t17 87.5q18 86 125 86q74 0 131 -37t57 -106 q0 -98 -114.5 -177t-337.5 -79q-449 0 -449 282zM313 870q2 84 52.5 137.5t140.5 53.5t142 -53.5t52 -137.5t-53 -138t-142 -54t-141.5 54t-50.5 138z" />
<glyph unicode="&#xc0;" horiz-adv-x="1249" d="M-70 0v66q74 6 97.5 20t62.5 103.5t173 511t188 630.5h340q51 -199 186 -620.5t176 -513.5t61.5 -107.5t98.5 -23.5v-66h-750v66l90 14q33 4 38 22q9 35 -85 351h-334q-51 -193 -67 -264.5t-7 -91t42 -21.5l108 -10v-66h-418zM297 541h283q-61 221 -140 481h-10 q-100 -356 -133 -481zM303 1611q0 34 28.5 73.5t66.5 40.5t100 -60l209 -201l-21 -37l-266 84q-37 10 -55.5 17.5t-40 28t-21.5 54.5z" />
<glyph unicode="&#xc1;" horiz-adv-x="1249" d="M-70 0v66q74 6 97.5 20t62.5 103.5t173 511t188 630.5h340q51 -199 186 -620.5t176 -513.5t61.5 -107.5t98.5 -23.5v-66h-750v66l90 14q33 4 38 22q9 35 -85 351h-334q-51 -193 -67 -264.5t-7 -91t42 -21.5l108 -10v-66h-418zM297 541h283q-61 221 -140 481h-10 q-100 -356 -133 -481zM582 1464l209 201q63 61 100 60t65.5 -40.5t28.5 -73.5t-21.5 -54.5t-40 -27.5t-55.5 -18l-266 -84z" />
<glyph unicode="&#xc2;" horiz-adv-x="1249" d="M-70 0v66q74 6 97.5 20t62.5 103.5t173 511t188 630.5h340q51 -199 186 -620.5t176 -513.5t61.5 -107.5t98.5 -23.5v-66h-750v66l90 14q33 4 38 22q9 35 -85 351h-334q-51 -193 -67 -264.5t-7 -91t42 -21.5l108 -10v-66h-418zM297 541h283q-61 221 -140 481h-10 q-100 -356 -133 -481zM375 1466l200 220q37 40 67 40t67 -40l204 -220l-24 -39l-209 91q-29 12 -37 11t-37 -13l-209 -89z" />
<glyph unicode="&#xc3;" horiz-adv-x="1249" d="M-70 0v66q74 6 97.5 20t62.5 103.5t173 511t188 630.5h340q51 -199 186 -620.5t176 -513.5t61.5 -107.5t98.5 -23.5v-66h-750v66l90 14q33 4 38 22q9 35 -85 351h-334q-51 -193 -67 -264.5t-7 -91t42 -21.5l108 -10v-66h-418zM297 541h283q-61 221 -140 481h-10 q-100 -356 -133 -481zM356 1454q16 51 33 85t58.5 70t90 36t126.5 -29q109 -35 129 -35q47 0 98 78l37 -23q-27 -70 -74 -129t-97 -59t-145.5 32t-117.5 31q-47 0 -99 -77z" />
<glyph unicode="&#xc4;" horiz-adv-x="1249" d="M-70 0v66q74 6 97.5 20t62.5 103.5t173 511t188 630.5h340q51 -199 186 -620.5t176 -513.5t61.5 -107.5t98.5 -23.5v-66h-750v66l90 14q33 4 38 22q9 35 -85 351h-334q-51 -193 -67 -264.5t-7 -91t42 -21.5l108 -10v-66h-418zM297 541h283q-61 221 -140 481h-10 q-100 -356 -133 -481zM309 1548.5q0 53.5 37 90t100.5 36.5t98.5 -36.5t35 -90t-35 -90.5t-98.5 -37t-100.5 37t-37 90.5zM700 1548q0 51 37 89t100.5 38t99.5 -36.5t36 -90t-36 -90.5t-99.5 -37t-100.5 38t-37 89z" />
<glyph unicode="&#xc5;" horiz-adv-x="1249" d="M-70 0v66q74 6 97.5 20t62.5 103.5t173 511t188 630.5h340q51 -199 186 -620.5t176 -513.5t61.5 -107.5t98.5 -23.5v-66h-750v66l90 14q33 4 38 22q9 35 -85 351h-334q-51 -193 -67 -264.5t-7 -91t42 -21.5l108 -10v-66h-418zM297 541h283q-61 221 -140 481h-10 q-100 -356 -133 -481zM453 1536q0 88 54 127t136 39t137.5 -39t55.5 -128t-55.5 -128t-137.5 -39q-190 0 -190 168zM563 1535q0 -52 22.5 -80t57.5 -28q80 0 80 109q0 51 -22.5 78.5t-57.5 27.5t-57.5 -27.5t-22.5 -79.5z" />
<glyph unicode="&#xc6;" horiz-adv-x="1777" d="M-41 0v66l47 2q23 0 45.5 20.5t34.5 39.5t57.5 100t207 423t241.5 531q29 67 -29 71l-151 15v63h1269v-385h-77q-49 113 -78 167t-65 87t-65.5 39t-90.5 6h-70q-43 0 -53.5 -11t-10.5 -56v-512h80q86 0 120 30.5t71 157.5h78v-473h-78q-39 129 -72 165t-119 36h-80v-375 q0 -82 24 -100.5t111 -18.5t118.5 6t74.5 43t80 100.5t102 194.5h76l-39 -432h-1124v66q86 2 105.5 21t19.5 95v400h-303q-162 -389 -172 -425t4 -58.5t49 -24.5l94 -8v-66h-432zM449 666h270v557h-27q-5 -14 -243 -557z" />
<glyph unicode="&#xc7;" horiz-adv-x="1306" d="M47 659q0 705 772 705q274 0 404 -78v-371h-78q-96 232 -153 293q-77 82 -167 82q-295 0 -295 -608q0 -222 52 -408q30 -104 98 -166.5t168 -62.5t183 100.5t159 278.5h78l-33 -365q-170 -92 -442 -92q-375 0 -560.5 169t-185.5 523zM590 -365q76 0 105.5 25t29.5 76 q0 76 -117 100l-4 12l144 166h61l-68 -86q211 -16 211 -168q0 -124 -106 -156q-84 -26 -139 -26t-117 8v49z" />
<glyph unicode="&#xc8;" horiz-adv-x="1228" d="M39 0v66q86 2 105.5 21t19.5 95v967q0 76 -20.5 96.5t-104.5 22.5v63h1094v-385h-80q-37 84 -54.5 124t-42 82t-37 54.5t-42 24.5t-52 13t-69.5 1h-70q-43 0 -52 -11t-9 -58v-453h69q92 0 120 28.5t79 174.5h78v-496h-78q-53 147 -80 176t-119 29h-69v-434 q0 -82 21.5 -97.5t116.5 -15.5t137 18q86 35 233 326h75l-37 -432h-1132zM293 1611q0 34 28.5 73.5t66.5 40.5t99 -60l209 -201l-20 -37l-266 84q-37 10 -55.5 17.5t-40 28t-21.5 54.5z" />
<glyph unicode="&#xc9;" horiz-adv-x="1228" d="M39 0v66q86 2 105.5 21t19.5 95v967q0 76 -20.5 96.5t-104.5 22.5v63h1094v-385h-80q-37 84 -54.5 124t-42 82t-37 54.5t-42 24.5t-52 13t-69.5 1h-70q-43 0 -52 -11t-9 -58v-453h69q92 0 120 28.5t79 174.5h78v-496h-78q-53 147 -80 176t-119 29h-69v-434 q0 -82 21.5 -97.5t116.5 -15.5t137 18q86 35 233 326h75l-37 -432h-1132zM571 1464l209 201q63 61 100.5 60t66 -40.5t28.5 -73.5t-21.5 -54.5t-40 -27.5t-55.5 -18l-266 -84z" />
<glyph unicode="&#xca;" horiz-adv-x="1228" d="M39 0v66q86 2 105.5 21t19.5 95v967q0 76 -20.5 96.5t-104.5 22.5v63h1094v-385h-80q-37 84 -54.5 124t-42 82t-37 54.5t-42 24.5t-52 13t-69.5 1h-70q-43 0 -52 -11t-9 -58v-453h69q92 0 120 28.5t79 174.5h78v-496h-78q-53 147 -80 176t-119 29h-69v-434 q0 -82 21.5 -97.5t116.5 -15.5t137 18q86 35 233 326h75l-37 -432h-1132zM365 1466l200 220q37 40 67 40t66 -40l205 -220l-24 -39l-209 91q-29 12 -37 11t-37 -13l-209 -89z" />
<glyph unicode="&#xcb;" horiz-adv-x="1228" d="M39 0v66q86 2 105.5 21t19.5 95v967q0 76 -20.5 96.5t-104.5 22.5v63h1094v-385h-80q-37 84 -54.5 124t-42 82t-37 54.5t-42 24.5t-52 13t-69.5 1h-70q-43 0 -52 -11t-9 -58v-453h69q92 0 120 28.5t79 174.5h78v-496h-78q-53 147 -80 176t-119 29h-69v-434 q0 -82 21.5 -97.5t116.5 -15.5t137 18q86 35 233 326h75l-37 -432h-1132zM299 1548.5q0 53.5 37 90t100.5 36.5t98 -36.5t34.5 -90t-34.5 -90.5t-98 -37t-100.5 37t-37 90.5zM690 1548q0 51 37 89t100.5 38t99.5 -36.5t36 -90t-36 -90.5t-99.5 -37t-100.5 38t-37 89z" />
<glyph unicode="&#xcc;" horiz-adv-x="786" d="M39 0v66q86 2 105.5 21t19.5 95v967q0 76 -20.5 96.5t-104.5 22.5v63h711v-63q-86 -2 -105.5 -22.5t-19.5 -96.5v-967q0 -76 19.5 -95t105.5 -21v-66h-711zM72 1611q0 34 28.5 73.5t66.5 40.5t99 -60l209 -201l-20 -37l-267 84q-37 10 -55 17.5t-39.5 28t-21.5 54.5z" />
<glyph unicode="&#xcd;" horiz-adv-x="786" d="M39 0v66q86 2 105.5 21t19.5 95v967q0 76 -20.5 96.5t-104.5 22.5v63h711v-63q-86 -2 -105.5 -22.5t-19.5 -96.5v-967q0 -76 19.5 -95t105.5 -21v-66h-711zM350 1464l209 201q63 61 100 60t66 -40.5t29 -73.5t-21.5 -54.5t-40 -27.5t-55.5 -18l-266 -84z" />
<glyph unicode="&#xce;" horiz-adv-x="786" d="M39 0v66q86 2 105.5 21t19.5 95v967q0 76 -20.5 96.5t-104.5 22.5v63h711v-63q-86 -2 -105.5 -22.5t-19.5 -96.5v-967q0 -76 19.5 -95t105.5 -21v-66h-711zM143 1466l201 220q37 40 67 40t66 -40l205 -220l-25 -39l-208 91q-29 12 -37.5 11t-36.5 -13l-209 -89z" />
<glyph unicode="&#xcf;" horiz-adv-x="786" d="M39 0v66q86 2 105.5 21t19.5 95v967q0 76 -20.5 96.5t-104.5 22.5v63h711v-63q-86 -2 -105.5 -22.5t-19.5 -96.5v-967q0 -76 19.5 -95t105.5 -21v-66h-711zM78 1548.5q0 53.5 37 90t100.5 36.5t98 -36.5t34.5 -90t-34.5 -90.5t-98 -37t-100.5 37t-37 90.5zM469 1548 q0 51 37 89t100.5 38t99 -36.5t35.5 -90t-35.5 -90.5t-99 -37t-100.5 38t-37 89z" />
<glyph unicode="&#xd0;" horiz-adv-x="1540" d="M47 664v73h135v412q0 76 -19.5 96.5t-105.5 22.5v63h742q193 0 314.5 -31.5t207.5 -117.5q162 -160 162 -508q0 -213 -75 -356.5t-202 -213.5q-188 -104 -516 -104h-633v66q86 2 105.5 21t19.5 95v482h-135zM643 162q0 -49 16.5 -66.5t71.5 -17.5q109 0 187.5 132 t78.5 429t-72.5 456.5t-201.5 159.5q-47 0 -63.5 -10t-16.5 -43v-465h186v-73h-186v-502z" />
<glyph unicode="&#xd1;" horiz-adv-x="1351" d="M16 0v66l54 10q37 6 54 26.5t28 103.5t12 464v479q0 76 -20.5 96.5t-104.5 22.5v63h549q88 -137 295 -439t243 -357h7v215q0 289 -13.5 376.5t-32 106t-57.5 22.5l-115 13v63h451v-63l-53 -6q-35 -4 -50.5 -22.5t-23.5 -70.5q-16 -147 -16 -419v-750h-320 q-88 139 -308 481t-335 531h-6v-342q0 -395 11 -469t30.5 -95.5t56.5 -25.5l121 -14v-66h-457zM408 1454q16 51 32.5 85t58.5 70t89 36t141.5 -32t114.5 -32q47 0 98 78l37 -23q-27 -70 -74 -129t-97 -59t-145 32t-118 31q-47 0 -99 -77z" />
<glyph unicode="&#xd2;" horiz-adv-x="1509" d="M57 667q0 333 172.5 515t526.5 182t525 -181.5t171 -516t-172 -517t-524 -182.5t-525.5 183.5t-173.5 516.5zM432 1611q0 34 28.5 73.5t66.5 40.5t100 -60l209 -201l-21 -37l-266 84q-37 10 -55.5 17.5t-40 28t-21.5 54.5zM543 617q0 -572 211 -572q115 0 164 144.5 t49 476.5q0 456 -99 570q-45 52 -111 52t-109 -46q-105 -111 -105 -625z" />
<glyph unicode="&#xd3;" horiz-adv-x="1509" d="M57 667q0 333 172.5 515t526.5 182t525 -181.5t171 -516t-172 -517t-524 -182.5t-525.5 183.5t-173.5 516.5zM543 617q0 -572 211 -572q115 0 164 144.5t49 476.5q0 456 -99 570q-45 52 -111 52t-109 -46q-105 -111 -105 -625zM711 1464l209 201q63 61 100 60t65.5 -40.5 t28.5 -73.5t-21.5 -54.5t-40 -27.5t-55.5 -18l-266 -84z" />
<glyph unicode="&#xd4;" horiz-adv-x="1509" d="M57 667q0 333 172.5 515t526.5 182t525 -181.5t171 -516t-172 -517t-524 -182.5t-525.5 183.5t-173.5 516.5zM504 1466l201 220q36 40 66 40t67 -40l204 -220l-24 -39l-209 91q-29 12 -37 11t-37 -13l-209 -89zM543 617q0 -572 211 -572q115 0 164 144.5t49 476.5 q0 456 -99 570q-45 52 -111 52t-109 -46q-105 -111 -105 -625z" />
<glyph unicode="&#xd5;" horiz-adv-x="1509" d="M57 667q0 333 172.5 515t526.5 182t525 -181.5t171 -516t-172 -517t-524 -182.5t-525.5 183.5t-173.5 516.5zM485 1454q16 51 33 85t58.5 70t89 36t142 -32t114.5 -32q47 0 98 78l37 -23q-27 -70 -74 -129t-97 -59t-145 32t-118 31q-47 0 -99 -77zM543 617 q0 -572 211 -572q115 0 164 144.5t49 476.5q0 456 -99 570q-45 52 -111 52t-109 -46q-105 -111 -105 -625z" />
<glyph unicode="&#xd6;" horiz-adv-x="1509" d="M57 667q0 333 172.5 515t526.5 182t525 -181.5t171 -516t-172 -517t-524 -182.5t-525.5 183.5t-173.5 516.5zM438 1548.5q0 53.5 37 90t100.5 36.5t98.5 -36.5t35 -90t-35 -90.5t-98.5 -37t-100.5 37t-37 90.5zM543 617q0 -572 211 -572q115 0 164 144.5t49 476.5 q0 456 -99 570q-45 52 -111 52t-109 -46q-105 -111 -105 -625zM829 1548q0 51 37 89t100.5 38t99.5 -36.5t36 -90t-36 -90.5t-99.5 -37t-100.5 38t-37 89z" />
<glyph unicode="&#xd7;" horiz-adv-x="870" d="M80 238l282 284l-282 283l70 78l286 -287l283 287l72 -78l-283 -283l283 -284l-72 -74l-283 287l-286 -287z" />
<glyph unicode="&#xd8;" horiz-adv-x="1509" d="M57 666q0 334 172 516t525 182q188 0 329 -53l56 96l53 -37l-51 -84q311 -160 311 -620q0 -334 -172 -516.5t-526 -182.5q-207 0 -355 66l-65 -113l-51 37l61 104q-287 170 -287 605zM543 666q0 -98 14 -267l379 670q-45 219 -182 219q-92 0 -148 -118q-63 -134 -63 -504 zM569 297q23 -141 67 -196.5t118 -55.5q115 0 164 144.5t49 476.5q0 174 -15 305z" />
<glyph unicode="&#xd9;" horiz-adv-x="1523" d="M18 1268v63h711v-63q-84 -2 -104.5 -22.5t-20.5 -96.5v-758q0 -182 38 -264t126 -82t125 81t37 265v758q0 76 -20.5 96.5t-104.5 22.5v63h698v-63q-84 -2 -104.5 -22.5t-20.5 -96.5v-670q0 -133 -26.5 -223t-93.5 -158q-129 -131 -494 -131q-463 0 -570 225 q-49 105 -49 277v680q0 76 -20.5 96.5t-106.5 22.5zM440 1611q0 34 29 73.5t67 40.5t99 -60l209 -201l-21 -37l-266 84q-37 10 -55.5 17.5t-40 28t-21.5 54.5z" />
<glyph unicode="&#xda;" horiz-adv-x="1523" d="M18 1268v63h711v-63q-84 -2 -104.5 -22.5t-20.5 -96.5v-758q0 -182 38 -264t126 -82t125 81t37 265v758q0 76 -20.5 96.5t-104.5 22.5v63h698v-63q-84 -2 -104.5 -22.5t-20.5 -96.5v-670q0 -133 -26.5 -223t-93.5 -158q-129 -131 -494 -131q-463 0 -570 225 q-49 105 -49 277v680q0 76 -20.5 96.5t-106.5 22.5zM719 1464l209 201q63 61 100 60t65.5 -40.5t28.5 -73.5t-21.5 -54.5t-40 -27.5t-54.5 -18l-267 -84z" />
<glyph unicode="&#xdb;" horiz-adv-x="1523" d="M18 1268v63h711v-63q-84 -2 -104.5 -22.5t-20.5 -96.5v-758q0 -182 38 -264t126 -82t125 81t37 265v758q0 76 -20.5 96.5t-104.5 22.5v63h698v-63q-84 -2 -104.5 -22.5t-20.5 -96.5v-670q0 -133 -26.5 -223t-93.5 -158q-129 -131 -494 -131q-463 0 -570 225 q-49 105 -49 277v680q0 76 -20.5 96.5t-106.5 22.5zM512 1466l201 220q36 40 66 40t67 -40l205 -220l-25 -39l-209 91q-29 12 -37 11t-37 -13l-208 -89z" />
<glyph unicode="&#xdc;" horiz-adv-x="1523" d="M18 1268v63h711v-63q-84 -2 -104.5 -22.5t-20.5 -96.5v-758q0 -182 38 -264t126 -82t125 81t37 265v758q0 76 -20.5 96.5t-104.5 22.5v63h698v-63q-84 -2 -104.5 -22.5t-20.5 -96.5v-670q0 -133 -26.5 -223t-93.5 -158q-129 -131 -494 -131q-463 0 -570 225 q-49 105 -49 277v680q0 76 -20.5 96.5t-106.5 22.5zM446 1548.5q0 53.5 37 90t100.5 36.5t98.5 -36.5t35 -90t-35 -90.5t-98.5 -37t-100.5 37t-37 90.5zM838 1548q0 51 36.5 89t100 38t99.5 -36.5t36 -90t-36 -90.5t-99.5 -37t-100 38t-36.5 89z" />
<glyph unicode="&#xdd;" horiz-adv-x="1196" d="M-51 1268v63h743v-63l-92 -13q-41 -6 -14 -65q94 -233 229 -528h4q98 262 178 516q23 72 -22 77l-98 13v63h397v-63q-45 -4 -66 -8q-48 -11 -78 -76q-156 -324 -270 -617q-16 -39 -16 -94v-295q0 -74 23.5 -90t140.5 -22v-66h-768v66q115 6 138 22t23 90v281q0 53 -18 96 q-289 655 -357 695q-22 14 -77 18zM555 1464l209 201q63 61 100 60t65.5 -40.5t28.5 -73.5t-21.5 -54.5t-39.5 -27.5t-55 -18l-267 -84z" />
<glyph unicode="&#xde;" horiz-adv-x="1361" d="M39 0v66q86 2 105.5 21t19.5 95v967q0 76 -20.5 96.5t-104.5 22.5v63h704v-63q-86 -2 -105.5 -22.5t-19.5 -96.5v-74h158q98 0 163 -5t138.5 -26.5t116.5 -60.5q100 -91 100 -295.5t-131 -300.5t-413 -96h-132v-109q0 -76 20.5 -95t115.5 -21v-66h-715zM618 442 q0 -41 14.5 -57t57.5 -16q139 0 139 313q0 150 -39.5 232.5t-113.5 82.5q-35 0 -46.5 -13t-11.5 -44v-498z" />
<glyph unicode="&#xdf;" horiz-adv-x="1415" d="M35 0v66q80 4 97.5 20t17.5 94v762h-115v96h115q8 61 21 108.5t54 109t103.5 101.5t176 68.5t237.5 28.5t204 -14.5t154 -47.5q155 -71 155 -255q0 -2 -6 -39q-88 -31 -138 -72t-50 -102.5t32.5 -101.5t124.5 -116.5t135.5 -145t43.5 -185.5q0 -164 -143.5 -283 t-335.5 -119q-145 0 -218 39t-73 89.5t39 89t79.5 38.5t73.5 -47q94 -123 160 -123q82 0 82 105q0 43 -36 95t-73 87t-121.5 109t-112.5 126t-28 141t87 171t222 127q12 29 13 84q0 115 -51.5 194.5t-155.5 79.5q-223 0 -223 -397v-623q0 -139 2 -247l2 -111h-551z" />
<glyph unicode="&#xe0;" d="M55 295q0 102 48.5 166.5t170.5 103.5q313 82 373 137v125q0 86 -22.5 121t-71.5 35q-111 0 -158 -221q-14 -59 -40.5 -82t-95.5 -23t-126 34t-57 106q0 104 135 186t381 82q475 0 475 -320v-473q0 -111 37 -140q30 -23 98 -23l4 -60q-129 -76 -344 -76q-160 0 -207 125 q-10 -8 -39.5 -32.5t-46 -36t-45.5 -26.5q-60 -30 -131 -30q-150 0 -244 91.5t-94 230.5zM381 1369q0 34 39 66.5t80 32.5q55 0 92 -94l98 -250l-37 -26l-192 159q-45 35 -62.5 56.5t-17.5 55.5zM471 346q0 -92 29.5 -155.5t73 -63.5t58.5 26.5t15 94.5v370 q-74 -41 -103 -64q-73 -58 -73 -208z" />
<glyph unicode="&#xe1;" d="M55 295q0 102 48.5 166.5t170.5 103.5q313 82 373 137v125q0 86 -22.5 121t-71.5 35q-111 0 -158 -221q-14 -59 -40.5 -82t-95.5 -23t-126 34t-57 106q0 104 135 186t381 82q475 0 475 -320v-473q0 -111 37 -140q30 -23 98 -23l4 -60q-129 -76 -344 -76q-160 0 -207 125 q-10 -8 -39.5 -32.5t-46 -36t-45.5 -26.5q-60 -30 -131 -30q-150 0 -244 91.5t-94 230.5zM471 346q0 -92 29.5 -155.5t73 -63.5t58.5 26.5t15 94.5v370q-74 -41 -103 -64q-73 -58 -73 -208zM567 1124l99 250q37 94 92 94q41 0 80 -31.5t39 -66.5t-17.5 -56.5t-62.5 -56.5 l-193 -159z" />
<glyph unicode="&#xe2;" d="M55 295q0 102 48.5 166.5t170.5 103.5q313 82 373 137v125q0 86 -22.5 121t-71.5 35q-111 0 -158 -221q-14 -59 -40.5 -82t-95.5 -23t-126 34t-57 106q0 104 135 186t381 82q475 0 475 -320v-473q0 -111 37 -140q30 -23 98 -23l4 -60q-129 -76 -344 -76q-160 0 -207 125 q-10 -8 -39.5 -32.5t-46 -36t-45.5 -26.5q-60 -30 -131 -30q-150 0 -244 91.5t-94 230.5zM385 1137l178 293q23 38 55.5 38t57.5 -38l178 -293l-35 -31l-164 125q-25 18 -36 17t-35 -17l-164 -125zM471 346q0 -92 29.5 -155.5t73 -63.5t58.5 26.5t15 94.5v370 q-74 -41 -103 -64q-73 -58 -73 -208z" />
<glyph unicode="&#xe3;" d="M55 295q0 102 48.5 166.5t170.5 103.5q313 82 373 137v125q0 86 -22.5 121t-71.5 35q-111 0 -158 -221q-14 -59 -40.5 -82t-95.5 -23t-126 34t-57 106q0 104 135 186t381 82q475 0 475 -320v-473q0 -111 37 -140q30 -23 98 -23l4 -60q-129 -76 -344 -76q-160 0 -207 125 q-10 -8 -39.5 -32.5t-46 -36t-45.5 -26.5q-60 -30 -131 -30q-150 0 -244 91.5t-94 230.5zM332 1167q16 51 32.5 85t58.5 70t86 36t132 -27q96 -35 127 -35q49 0 98 76l37 -22q-27 -70 -74 -128.5t-100 -58.5t-98 16.5t-75 26.5q-53 19 -93.5 19t-89.5 -76zM471 346 q0 -92 29.5 -155.5t73 -63.5t58.5 26.5t15 94.5v370q-74 -41 -103 -64q-73 -58 -73 -208z" />
<glyph unicode="&#xe4;" d="M55 295q0 102 48.5 166.5t170.5 103.5q313 82 373 137v125q0 86 -22.5 121t-71.5 35q-111 0 -158 -221q-14 -59 -40.5 -82t-95.5 -23t-126 34t-57 106q0 104 135 186t381 82q475 0 475 -320v-473q0 -111 37 -140q30 -23 98 -23l4 -60q-129 -76 -344 -76q-160 0 -207 125 q-10 -8 -39.5 -32.5t-46 -36t-45.5 -26.5q-60 -30 -131 -30q-150 0 -244 91.5t-94 230.5zM285 1262.5q0 54.5 38.5 94.5t106.5 40t104.5 -40t36.5 -95.5t-36.5 -94.5t-104.5 -39t-106.5 40t-38.5 94.5zM471 346q0 -92 29.5 -155.5t73 -63.5t58.5 26.5t15 94.5v370 q-74 -41 -103 -64q-73 -58 -73 -208zM668 1262.5q0 54.5 38.5 94.5t105.5 40t104.5 -40t37.5 -95.5t-37.5 -94.5t-104.5 -39t-105.5 40t-38.5 94.5z" />
<glyph unicode="&#xe5;" d="M55 295q0 102 48.5 166.5t170.5 103.5q313 82 373 137v125q0 86 -22.5 121t-71.5 35q-111 0 -158 -221q-14 -59 -40.5 -82t-95.5 -23t-126 34t-57 106q0 104 135 186t381 82q475 0 475 -320v-473q0 -111 37 -140q30 -23 98 -23l4 -60q-129 -76 -344 -76q-160 0 -207 125 q-10 -8 -39.5 -32.5t-46 -36t-45.5 -26.5q-60 -30 -131 -30q-150 0 -244 91.5t-94 230.5zM428 1298.5q0 90.5 56 133.5t135 43t135.5 -43t56.5 -133.5t-56.5 -132.5t-136 -42t-135 42t-55.5 132.5zM471 346q0 -92 29.5 -155.5t73 -63.5t58.5 26.5t15 94.5v370 q-74 -41 -103 -64q-73 -58 -73 -208zM539 1299.5q0 -52.5 22.5 -81t56.5 -28.5q82 0 82 108q0 53 -23.5 81t-58 28t-57 -27.5t-22.5 -80z" />
<glyph unicode="&#xe6;" horiz-adv-x="1691" d="M55 295q0 100 48.5 162.5t170.5 103.5l181 55q152 49 200 86v129q0 152 -100 152q-53 0 -91 -53t-89 -199q-27 -78 -106 -78t-136 34t-57 106q0 115 133 193.5t381 78.5q88 0 175 -23.5t132 -62.5q123 86 301 86q279 0 383 -145q35 -48 50.5 -80.5t23.5 -86t8 -71.5v-55 q0 -55 -18.5 -80t-67.5 -25h-506q2 -174 58.5 -277.5t175.5 -103.5q70 0 110.5 8.5t86.5 48.5t83 117l55 -32q-37 -119 -112.5 -191t-163.5 -95.5t-205 -23.5q-303 0 -411 160q-16 -10 -56.5 -40t-57 -40t-51 -30.5t-57.5 -27.5q-74 -22 -133 -22q-150 0 -244 91.5 t-94 230.5zM467 338q0 -84 34 -151.5t76 -67.5t60 25.5t18 93.5v364q-55 -23 -90 -45t-66.5 -78.5t-31.5 -140.5zM1071 600l123 6q41 2 56.5 18.5t15.5 73.5q0 289 -95 289q-100 0 -100 -387z" />
<glyph unicode="&#xe7;" horiz-adv-x="1069" d="M57 502.5q0 300.5 179 445.5q145 117 358 117t331.5 -65.5t118.5 -176.5q0 -76 -64.5 -116.5t-122.5 -40.5t-85 19.5t-33 64.5q-33 238 -114 237q-117 0 -117 -391q0 -444 227 -444q186 0 260 182l56 -31q-49 -166 -161 -242.5t-251 -83.5l-39 -49q213 -16 213 -168 q0 -182 -287 -182q-16 0 -77 8v49q78 0 107.5 25t29.5 76q0 76 -119 100l-2 12l110 129q-227 4 -365 109q-153 116 -153 416.5z" />
<glyph unicode="&#xe8;" horiz-adv-x="1128" d="M57 505.5q0 276.5 141.5 418t407.5 141.5q349 0 456 -220q40 -83 40 -218q0 -55 -18.5 -80t-69.5 -25h-506q2 -172 60.5 -272t174.5 -100t176 32.5t107 132.5l53 -28q-55 -174 -178 -244t-305 -70q-276 0 -407.5 128t-131.5 404.5zM344 1369q0 34 39 66.5t80 32.5 q55 0 92 -94l98 -250l-37 -26l-192 159q-45 35 -62.5 56.5t-17.5 55.5zM508 602l125 8q43 4 56 19.5t13 72.5q0 285 -92 285q-102 0 -102 -385z" />
<glyph unicode="&#xe9;" horiz-adv-x="1128" d="M57 505.5q0 276.5 141.5 418t407.5 141.5q349 0 456 -220q40 -83 40 -218q0 -55 -18.5 -80t-69.5 -25h-506q2 -172 60.5 -272t174.5 -100t176 32.5t107 132.5l53 -28q-55 -174 -178 -244t-305 -70q-276 0 -407.5 128t-131.5 404.5zM508 602l125 8q43 4 56 19.5t13 72.5 q0 285 -92 285q-102 0 -102 -385zM530 1124l99 250q37 94 92 94q41 0 80 -31.5t39 -66.5t-17.5 -56.5t-62.5 -56.5l-193 -159z" />
<glyph unicode="&#xea;" horiz-adv-x="1128" d="M57 505.5q0 276.5 141.5 418t407.5 141.5q349 0 456 -220q40 -83 40 -218q0 -55 -18.5 -80t-69.5 -25h-506q2 -172 60.5 -272t174.5 -100t176 32.5t107 132.5l53 -28q-55 -174 -178 -244t-305 -70q-276 0 -407.5 128t-131.5 404.5zM348 1137l178 293q23 38 55.5 38 t57.5 -38l178 -293l-35 -31l-164 125q-25 18 -36 17t-35 -17l-164 -125zM508 602l125 8q43 4 56 19.5t13 72.5q0 285 -92 285q-102 0 -102 -385z" />
<glyph unicode="&#xeb;" horiz-adv-x="1128" d="M57 505.5q0 276.5 141.5 418t407.5 141.5q349 0 456 -220q40 -83 40 -218q0 -55 -18.5 -80t-69.5 -25h-506q2 -172 60.5 -272t174.5 -100t176 32.5t107 132.5l53 -28q-55 -174 -178 -244t-305 -70q-276 0 -407.5 128t-131.5 404.5zM248 1262.5q0 54.5 39 94.5t106.5 40 t104.5 -40t37 -95.5t-37 -94.5t-104.5 -39t-106.5 40t-39 94.5zM508 602l125 8q43 4 56 19.5t13 72.5q0 285 -92 285q-102 0 -102 -385zM631 1262.5q0 54.5 39 94.5t105.5 40t104.5 -40t38 -95.5t-38 -94.5t-105 -39t-105.5 40t-38.5 94.5z" />
<glyph unicode="&#xec;" horiz-adv-x="716" d="M37 0v66q80 4 97.5 20t17.5 94v668q0 76 -43 84l-60 10v66l539 53l6 -8v-873q0 -78 17.5 -94t97.5 -20v-66h-672zM139 1369q0 34 39 66.5t80 32.5q55 0 92 -94l99 -250l-37 -26l-193 159q-45 35 -62.5 56.5t-17.5 55.5z" />
<glyph unicode="&#xed;" horiz-adv-x="716" d="M37 0v66q80 4 97.5 20t17.5 94v668q0 76 -43 84l-60 10v66l539 53l6 -8v-873q0 -78 17.5 -94t97.5 -20v-66h-672zM326 1124l98 250q37 94 92 94q41 0 80 -31.5t39 -66.5t-17.5 -56.5t-62.5 -56.5l-193 -159z" />
<glyph unicode="&#xee;" horiz-adv-x="716" d="M37 0v66q80 4 97.5 20t17.5 94v668q0 76 -43 84l-60 10v66l539 53l6 -8v-873q0 -78 17.5 -94t97.5 -20v-66h-672zM143 1137l179 293q22 38 55 38t57 -38l178 -293l-34 -31l-164 125q-25 18 -36 17t-36 -17l-164 -125z" />
<glyph unicode="&#xef;" horiz-adv-x="716" d="M37 0v66q80 4 97.5 20t17.5 94v668q0 76 -43 84l-60 10v66l539 53l6 -8v-873q0 -78 17.5 -94t97.5 -20v-66h-672zM43 1262.5q0 54.5 39 94.5t106.5 40t104.5 -40t37 -95.5t-37 -94.5t-104.5 -39t-106.5 40t-39 94.5zM426 1262.5q0 54.5 39 94.5t105.5 40t104.5 -40 t38 -95.5t-38 -94.5t-105 -39t-105.5 40t-38.5 94.5z" />
<glyph unicode="&#xf0;" horiz-adv-x="1269" d="M57 516q0 489 541 492h57q-29 47 -116 147l-252 -115l-27 64l229 104q-115 111 -266 189v16l39 41q248 -27 453 -135l231 106l25 -65l-180 -82q422 -268 421 -719q0 -283 -135 -434.5t-441 -151.5t-442.5 138.5t-136.5 404.5zM508 516q0 -467 129 -467q66 0 95.5 112.5 t29.5 360.5t-45 348q-29 60 -80 60q-72 0 -100.5 -103.5t-28.5 -310.5z" />
<glyph unicode="&#xf1;" horiz-adv-x="1351" d="M37 0v66l57 2q28 0 39.5 10t11.5 15l7 40v715q0 76 -43 84l-60 10v66l498 53l26 -139q178 127 251 138q34 5 75 5q160 0 240 -86t80 -240v-559q0 -76 17 -93t97 -21v-66h-620v66q49 6 61 20t12 57v570q0 182 -96 182q-106 0 -106 -195v-530q0 -49 14 -73.5t59 -30.5v-66 h-620zM408 1167q16 51 32.5 85t58.5 70t86 36t132 -27q96 -35 127 -35q49 0 98 76l37 -22q-27 -70 -74 -128.5t-101 -58.5t-98 16.5t-74 26.5q-53 19 -93.5 19t-89.5 -76z" />
<glyph unicode="&#xf2;" horiz-adv-x="1269" d="M66 519q0 546 577.5 546t577.5 -546t-577.5 -546t-577.5 546zM416 1369q0 34 39 66.5t80 32.5q55 0 92 -94l98 -250l-37 -26l-192 159q-45 35 -62.5 56.5t-17.5 55.5zM516 515q0 -224 26.5 -345t100.5 -121q127 0 127 465t-127 465q-74 0 -100.5 -120t-26.5 -344z" />
<glyph unicode="&#xf3;" horiz-adv-x="1269" d="M66 519q0 546 577.5 546t577.5 -546t-577.5 -546t-577.5 546zM516 515q0 -224 26.5 -345t100.5 -121q127 0 127 465t-127 465q-74 0 -100.5 -120t-26.5 -344zM602 1124l98 250q37 94 93 94q41 0 79.5 -31.5t38.5 -66.5t-17 -56.5t-63 -56.5l-192 -159z" />
<glyph unicode="&#xf4;" horiz-adv-x="1269" d="M66 519q0 546 577.5 546t577.5 -546t-577.5 -546t-577.5 546zM420 1137l178 293q23 38 55.5 38t57.5 -38l178 -293l-35 -31l-164 125q-25 18 -36 17t-36 -17l-163 -125zM516 515q0 -224 26.5 -345t100.5 -121q127 0 127 465t-127 465q-74 0 -100.5 -120t-26.5 -344z" />
<glyph unicode="&#xf5;" horiz-adv-x="1269" d="M66 519q0 546 577.5 546t577.5 -546t-577.5 -546t-577.5 546zM367 1167q16 51 32.5 85t58.5 70t86 36t132 -27q96 -35 127 -35q49 0 98 76l37 -22q-27 -70 -74 -128.5t-101 -58.5t-98 16.5t-74 26.5q-53 19 -93.5 19t-89.5 -76zM516 515q0 -224 26.5 -345t100.5 -121 q127 0 127 465t-127 465q-74 0 -100.5 -120t-26.5 -344z" />
<glyph unicode="&#xf6;" horiz-adv-x="1269" d="M66 519q0 546 577.5 546t577.5 -546t-577.5 -546t-577.5 546zM319 1262.5q0 54.5 39 94.5t106.5 40t104.5 -40t37 -95.5t-37 -94.5t-104.5 -39t-106.5 40t-39 94.5zM516 515q0 -224 26.5 -345t100.5 -121q127 0 127 465t-127 465q-74 0 -100.5 -120t-26.5 -344z M702 1262.5q0 54.5 39 94.5t106 40t104.5 -40t37.5 -95.5t-37.5 -94.5t-104.5 -39t-106 40t-39 94.5z" />
<glyph unicode="&#xf7;" horiz-adv-x="870" d="M76 473v100h717v-100h-717zM344 751.5q0 36.5 25.5 63.5t63.5 27t64.5 -27t26.5 -61v-2q0 -37 -26.5 -63.5t-64.5 -26.5t-63.5 26.5t-25.5 63zM346 295q0 37 25.5 63.5t62.5 26.5t63.5 -26.5t28.5 -61.5h-2q0 -39 -26.5 -65.5t-63.5 -26.5t-62.5 26.5t-25.5 63.5z" />
<glyph unicode="&#xf8;" horiz-adv-x="1269" d="M57 518q0 543 578 543q152 0 268 -39l60 96l51 -31l-53 -88q251 -121 251 -481q0 -541 -577 -541q-162 0 -275 41l-61 -100l-49 37l53 86q-246 123 -246 477zM498 520q0 -113 4 -160l250 431q-31 193 -117 192q-137 0 -137 -463zM512 260q31 -207 123 -207q137 0 137 467 q0 76 -8 174z" />
<glyph unicode="&#xf9;" horiz-adv-x="1339" d="M39 961v65l520 25l12 -9v-725q0 -84 28 -130t74 -46t72.5 45t26.5 185v495q0 78 -45 84l-57 11v65l520 25l14 -9v-862q0 -78 17.5 -94t97.5 -20v-66h-500l-31 131q-4 -2 -39.5 -33.5t-68.5 -55.5t-89 -46.5t-110 -22.5q-166 0 -253 75t-87 251v567q0 78 -45 84zM451 1369 q0 34 38.5 66.5t79.5 32.5q55 0 93 -94l98 -250l-37 -26l-193 159q-45 35 -62 56.5t-17 55.5z" />
<glyph unicode="&#xfa;" horiz-adv-x="1339" d="M39 961v65l520 25l12 -9v-725q0 -84 28 -130t74 -46t72.5 45t26.5 185v495q0 78 -45 84l-57 11v65l520 25l14 -9v-862q0 -78 17.5 -94t97.5 -20v-66h-500l-31 131q-4 -2 -39.5 -33.5t-68.5 -55.5t-89 -46.5t-110 -22.5q-166 0 -253 75t-87 251v567q0 78 -45 84zM637 1124 l98 250q37 94 92 94q41 0 80 -31.5t39 -66.5t-17.5 -56.5t-62.5 -56.5l-192 -159z" />
<glyph unicode="&#xfb;" horiz-adv-x="1339" d="M39 961v65l520 25l12 -9v-725q0 -84 28 -130t74 -46t72.5 45t26.5 185v495q0 78 -45 84l-57 11v65l520 25l14 -9v-862q0 -78 17.5 -94t97.5 -20v-66h-500l-31 131q-4 -2 -39.5 -33.5t-68.5 -55.5t-89 -46.5t-110 -22.5q-166 0 -253 75t-87 251v567q0 78 -45 84zM455 1137 l178 293q22 38 55 38t57 -38l179 -293l-35 -31l-164 125q-25 18 -36 17t-36 -17l-164 -125z" />
<glyph unicode="&#xfc;" horiz-adv-x="1339" d="M39 961v65l520 25l12 -9v-725q0 -84 28 -130t74 -46t72.5 45t26.5 185v495q0 78 -45 84l-57 11v65l520 25l14 -9v-862q0 -78 17.5 -94t97.5 -20v-66h-500l-31 131q-4 -2 -39.5 -33.5t-68.5 -55.5t-89 -46.5t-110 -22.5q-166 0 -253 75t-87 251v567q0 78 -45 84z M354 1262.5q0 54.5 39 94.5t106.5 40t104.5 -40t37 -95.5t-37 -94.5t-104.5 -39t-106.5 40t-39 94.5zM737 1262.5q0 54.5 39 94.5t106 40t104.5 -40t37.5 -95.5t-37.5 -94.5t-104.5 -39t-106 40t-39 94.5z" />
<glyph unicode="&#xfd;" horiz-adv-x="1009" d="M-63 973v65h681v-65l-67 -8q-49 -6 -25.5 -74t52.5 -143q72 -179 133 -318h8q96 334 123 469q12 59 -33 66l-74 8v65h361v-65q-55 0 -77 -13.5t-46.5 -68.5t-72.5 -181q-138 -361 -207.5 -558t-88 -243t-55.5 -120t-67 -105q-82 -81 -173.5 -81t-143.5 41t-52 105.5 t47 115.5t106 51q31 0 45.5 -9t54 -49t76.5 -40t52.5 33.5t-5.5 80.5q-416 915 -436.5 958.5t-39.5 60t-76 22.5zM471 1124l98 250q37 94 93 94q41 0 79.5 -31.5t38.5 -66.5t-17.5 -56.5t-62.5 -56.5l-192 -159z" />
<glyph unicode="&#xfe;" horiz-adv-x="1306" d="M23 -307q80 4 98 20.5t18 93.5v1442q0 78 -45 86l-57 8v66l524 45l4 -2v-541q46 46 103 81.5t82 45.5q61 27 145 27t157.5 -41t109.5 -95.5t58 -132.5q29 -106 29 -232t-23.5 -223t-81.5 -184q-121 -184 -454 -184q-68 0 -121 19v-185q0 -78 18.5 -93t110.5 -21v-66h-675 v66zM569 211q0 -152 95 -152q89 0 114 147q21 115 21 290q0 399 -133 399q-97 0 -97 -143v-541z" />
<glyph unicode="&#xff;" horiz-adv-x="1009" d="M-63 973v65h681v-65l-67 -8q-49 -6 -25.5 -74t52.5 -143q72 -179 133 -318h8q96 334 123 469q12 59 -33 66l-74 8v65h361v-65q-55 0 -77 -13.5t-46.5 -68.5t-72.5 -181q-138 -361 -207.5 -558t-88 -243t-55.5 -120t-67 -105q-82 -81 -173.5 -81t-143.5 41t-52 105.5 t47 115.5t106 51q31 0 45.5 -9t54 -49t76.5 -40t52.5 33.5t-5.5 80.5q-416 915 -436.5 958.5t-39.5 60t-76 22.5zM188 1262.5q0 54.5 39 94.5t106.5 40t104.5 -40t37 -95.5t-37 -94.5t-104.5 -39t-106.5 40t-39 94.5zM571 1262.5q0 54.5 39 94.5t106 40t104.5 -40 t37.5 -95.5t-37.5 -94.5t-104.5 -39t-106 40t-39 94.5z" />
<glyph unicode="&#x152;" horiz-adv-x="2043" d="M57 659.5q0 170.5 43 296t113 199.5t172 120t204.5 61.5t213 15.5t229.5 -10.5t172 -10.5h744v-385h-76q-8 16 -23 47q-74 156 -120 203t-156 47h-72q-41 0 -51 -11t-10 -58v-455h80q84 0 116.5 30.5t73.5 165.5h76v-479h-76q-43 135 -72.5 166t-117.5 31h-80v-434 q0 -82 22.5 -97.5t134 -15.5t176 59.5t171.5 286.5h81l-38 -432h-770q-25 0 -167.5 -9t-262 -9t-215 13t-197 55t-167 114t-108.5 198.5t-43 297zM543 668q0 -600 309 -600q127 0 127 106v971q0 66 -28.5 94.5t-98.5 28.5q-309 0 -309 -600z" />
<glyph unicode="&#x153;" horiz-adv-x="1808" d="M57 519q0 265 134.5 405.5t435.5 140.5q98 0 193 -35t153 -88q61 53 154.5 88t189.5 35t173 -20.5t124 -48t82 -72.5t50 -80t24.5 -86t9.5 -72v-68q0 -98 -90 -98h-500q4 -395 240 -395q180 0 268 188l59 -30q-55 -176 -167.5 -243t-304.5 -67t-320 121 q-51 -51 -152.5 -86t-216.5 -35q-285 0 -412 140.5t-127 405.5zM508 520q0 -463 133 -463q123 0 123 463q0 227 -28.5 344t-98.5 117t-99.5 -106.5t-29.5 -354.5zM1190 602l141 8q51 2 51 76q0 295 -90 295q-102 0 -102 -379z" />
<glyph unicode="&#x178;" horiz-adv-x="1196" d="M-51 1268v63h743v-63l-92 -13q-41 -6 -14 -65q94 -233 229 -528h4q98 262 178 516q23 72 -22 77l-98 13v63h397v-63q-45 -4 -66 -8q-48 -11 -78 -76q-156 -324 -270 -617q-16 -39 -16 -94v-295q0 -74 23.5 -90t140.5 -22v-66h-768v66q115 6 138 22t23 90v281q0 53 -18 96 q-289 655 -357 695q-22 14 -77 18zM283 1548.5q0 53.5 36.5 90t100 36.5t98.5 -36.5t35 -90t-35 -90.5t-98.5 -37t-100 37t-36.5 90.5zM674 1548q0 51 37 89t100 38t99 -36.5t36 -90t-36 -90.5t-99 -37t-100 38t-37 89z" />
<glyph unicode="&#x2c6;" horiz-adv-x="731" d="M150 1137l178 293q22 38 55 38t57 -38l178 -293l-34 -31l-164 125q-25 18 -36 17t-36 -17l-164 -125z" />
<glyph unicode="&#x2dc;" horiz-adv-x="731" d="M96 1167q16 51 32.5 85t58.5 70t86.5 36t132.5 -27q96 -35 126 -35q49 0 99 76l37 -22q-27 -70 -74 -128.5t-101 -58.5t-98.5 16.5t-74.5 26.5q-51 19 -92.5 19t-90.5 -76z" />
<glyph unicode="&#x2000;" horiz-adv-x="863" />
<glyph unicode="&#x2001;" horiz-adv-x="1726" />
<glyph unicode="&#x2002;" horiz-adv-x="863" />
<glyph unicode="&#x2003;" horiz-adv-x="1726" />
<glyph unicode="&#x2004;" horiz-adv-x="575" />
<glyph unicode="&#x2005;" horiz-adv-x="431" />
<glyph unicode="&#x2006;" horiz-adv-x="287" />
<glyph unicode="&#x2007;" horiz-adv-x="287" />
<glyph unicode="&#x2008;" horiz-adv-x="215" />
<glyph unicode="&#x2009;" horiz-adv-x="345" />
<glyph unicode="&#x200a;" horiz-adv-x="95" />
<glyph unicode="&#x2010;" horiz-adv-x="659" d="M78 485v146h506v-146h-506z" />
<glyph unicode="&#x2011;" horiz-adv-x="659" d="M78 485v146h506v-146h-506z" />
<glyph unicode="&#x2012;" horiz-adv-x="659" d="M78 485v146h506v-146h-506z" />
<glyph unicode="&#x2013;" horiz-adv-x="962" d="M78 485v146h805v-146h-805z" />
<glyph unicode="&#x2014;" horiz-adv-x="1925" d="M78 485v146h1769v-146h-1769z" />
<glyph unicode="&#x2018;" horiz-adv-x="440" d="M57 979q0 258 277 506l49 -33q-2 -4 -15.5 -42t-16.5 -46t-14 -43t-15.5 -49.5t-12.5 -46t-10 -53t-5 -49t-3 -67.5t61 -147q-25 -20 -99.5 -51t-111.5 -24q-31 18 -57.5 65t-26.5 80z" />
<glyph unicode="&#x2019;" horiz-adv-x="440" d="M57 858q95 238 95 383q0 43 -62 160q25 23 98.5 52.5t112.5 25.5q31 -18 56.5 -65.5t25.5 -80.5q0 -258 -274 -508z" />
<glyph unicode="&#x201a;" horiz-adv-x="559" d="M59 -262q115 180 115 412q0 33 -14.5 91t-32.5 93q27 23 120 56.5t136 27.5q29 -29 49.5 -78t20.5 -84q0 -127 -97.5 -276.5t-242.5 -284.5z" />
<glyph unicode="&#x201c;" horiz-adv-x="751" d="M57 979q0 137 74 270t186 236l48 -33q-94 -201 -95 -383q0 -43 62 -160q-27 -23 -90.5 -52.5t-100.5 -22.5q-31 18 -57.5 65t-26.5 80zM387 979q0 137 74 270t186 236l47 -33q-94 -213 -94 -383q0 -43 62 -160q-27 -23 -90.5 -52.5t-102.5 -22.5q-31 18 -56.5 65 t-25.5 80z" />
<glyph unicode="&#x201d;" horiz-adv-x="751" d="M57 866q94 213 95 383q0 43 -62 160q27 23 90.5 52.5t102.5 23.5q31 -18 56.5 -65.5t25.5 -80.5q0 -137 -74 -270t-187 -235zM387 866q92 205 92 383q0 47 -59 160q27 23 90 52.5t100 23.5q31 -18 57.5 -65.5t26.5 -80.5q0 -137 -73.5 -270t-186.5 -235z" />
<glyph unicode="&#x201e;" horiz-adv-x="909" d="M57 -262q123 193 123 418q0 70 -55 176q29 25 109.5 58.5t121.5 27.5q29 -29 50.5 -78t21.5 -84q0 -131 -89 -281.5t-228 -279.5zM434 -262q123 193 123 418q0 66 -53 176q27 25 107.5 58.5t123.5 27.5q29 -29 49.5 -78t20.5 -84q0 -131 -89 -281.5t-229 -279.5z" />
<glyph unicode="&#x2022;" horiz-adv-x="772" d="M123 534q-2 155 58 211t206 56q66 0 124.5 -20t76.5 -40q55 -55 55 -211.5t-63.5 -215t-206 -58.5t-195.5 61.5t-55 216.5z" />
<glyph unicode="&#x2026;" horiz-adv-x="1734" d="M104 159q0 81 45.5 131t129 50t129 -50t45.5 -131t-45.5 -131.5t-129 -50.5t-129 50.5t-45.5 131.5zM680 159q0 81 45 131t129 50t129 -50t45 -131t-45 -131.5t-129 -50.5t-129 50.5t-45 131.5zM1255 159q0 81 45.5 131t129 50t129 -50t45.5 -131t-45.5 -131.5 t-129 -50.5t-129 50.5t-45.5 131.5z" />
<glyph unicode="&#x202f;" horiz-adv-x="345" />
<glyph unicode="&#x2039;" horiz-adv-x="563" d="M94 471q-37 37 0 72l363 354l28 -25l-178 -331q-16 -31 0 -66l178 -332l-28 -26z" />
<glyph unicode="&#x203a;" horiz-adv-x="563" d="M94 143l178 330q16 33 0 66l-178 333l29 25l362 -354q37 -37 0 -72l-362 -354z" />
<glyph unicode="&#x205f;" horiz-adv-x="431" />
<glyph unicode="&#x20ac;" horiz-adv-x="1202" d="M41 512v76h82q0 106 2 145h-84v74h94q39 260 181.5 387t412.5 127q111 0 196 -24.5t126 -61.5q79 -71 79 -129.5t-40.5 -90.5t-77.5 -32q-70 0 -99 82q-25 66 -39 95.5t-42.5 57t-63.5 27.5q-82 0 -133 -112.5t-64 -325.5h408v-74h-412q-4 -74 0 -145h412v-76h-406 q8 -106 32 -189t82 -145.5t150 -62.5t141.5 46t106.5 154l60 -36q-104 -303 -453 -304q-308 0 -432 155q-61 77 -91 167t-44 215h-84z" />
<glyph unicode="&#x2122;" horiz-adv-x="534" d="M29 1268v61h194v-61h-18l-6 24q-5 19 -25 19h-12v-129q0 -14 10 -15l23 -2v-20h-138v20l21 2q10 3 10 15v129h-12q-23 0 -29 -43h-18zM240 1145v20l20 2q10 0 10 47v78q0 16 -12 17l-18 2v18h112l35 -88h2l8 23q8 23 17 43l8 22h113v-18l-21 -2q-10 -5 -10 -19v-108 q0 -14 10 -15l21 -2v-20h-127v20l16 2q8 0 8 15v116h-2l-51 -149h-37l-47 149h-4v-84q0 -47 12 -47l19 -2v-20h-82z" />
<glyph unicode="&#xe000;" horiz-adv-x="1034" d="M0 0v1034h1034v-1034h-1034z" />
</font>
</defs>
</svg>
